<?xml version="1.0" encoding="utf-8"?>
<!-- Generator: Adobe Illustrator 25.0.1, SVG Export Plug-In . SVG Version: 6.00 Build 0)  -->
<svg version="1.1" id="Layer_1" xmlns="http://www.w3.org/2000/svg" xmlns:xlink="http://www.w3.org/1999/xlink" x="0px" y="0px"
	 viewBox="0 0 137 113" style="enable-background:new 0 0 137 113;" xml:space="preserve">
<style type="text/css">
	.st0{fill-rule:evenodd;clip-rule:evenodd;fill:#FFFFFF;}
	.st1{fill:none;stroke:#1D70B8;stroke-width:3;stroke-linecap:square;}
	.st2{enable-background:new    ;}
	.st3{fill:#505A5F;}
</style>
<g id="Application-proved-id-gnc">
	<rect class="st0" width="137" height="113"/>
	<line id="Line-2-Copy-6" class="st1" x1="1.5" y1="2" x2="1.5" y2="98"/>
	<line id="Line-3-Copy-21" class="st1" x1="2" y1="88" x2="12" y2="88"/>
	<line id="Line-3-Copy-22" class="st1" x1="2" y1="10" x2="12" y2="10"/>
	<g class="st2">
		<path d="M25.5,90.4h-3.1L21.9,92h-1.8l2.7-8.4h2.2l2.8,8.4H26L25.5,90.4z M22.9,88.9h2.2L24,85.4h0L22.9,88.9z"/>
		<path d="M30.4,94h-1.6v-8.3h1.6v0.5c0.2-0.2,0.4-0.3,0.7-0.5s0.6-0.2,0.9-0.2c0.4,0,0.8,0.1,1.1,0.2s0.6,0.4,0.9,0.7
			s0.4,0.6,0.6,1s0.2,0.8,0.2,1.3s-0.1,0.9-0.2,1.3s-0.3,0.7-0.6,1s-0.5,0.5-0.9,0.7s-0.7,0.2-1.1,0.2c-0.2,0-0.4,0-0.5,0
			S31.1,92,31,91.9s-0.2-0.1-0.3-0.2s-0.2-0.2-0.3-0.3V94z M30.3,89.4c0,0.2,0,0.3,0.1,0.5s0.1,0.3,0.3,0.4s0.2,0.2,0.4,0.2
			s0.3,0.1,0.5,0.1c0.2,0,0.4,0,0.6-0.1s0.3-0.2,0.4-0.4s0.2-0.3,0.3-0.5s0.1-0.4,0.1-0.7v-0.1c0-0.2,0-0.5-0.1-0.7
			s-0.2-0.4-0.3-0.5s-0.3-0.3-0.4-0.4s-0.4-0.1-0.6-0.1c-0.2,0-0.4,0-0.5,0.1s-0.3,0.1-0.4,0.2s-0.2,0.2-0.3,0.4s-0.1,0.3-0.1,0.5
			V89.4z"/>
		<path d="M37.4,94h-1.6v-8.3h1.6v0.5c0.2-0.2,0.4-0.3,0.7-0.5s0.6-0.2,0.9-0.2c0.4,0,0.8,0.1,1.1,0.2s0.6,0.4,0.9,0.7
			s0.4,0.6,0.6,1s0.2,0.8,0.2,1.3s-0.1,0.9-0.2,1.3s-0.3,0.7-0.6,1s-0.5,0.5-0.9,0.7s-0.7,0.2-1.1,0.2c-0.2,0-0.4,0-0.5,0
			s-0.3-0.1-0.4-0.1s-0.2-0.1-0.3-0.2s-0.2-0.2-0.3-0.3V94z M37.4,89.4c0,0.2,0,0.3,0.1,0.5s0.1,0.3,0.3,0.4s0.2,0.2,0.4,0.2
			s0.3,0.1,0.5,0.1c0.2,0,0.4,0,0.6-0.1s0.3-0.2,0.4-0.4s0.2-0.3,0.3-0.5s0.1-0.4,0.1-0.7v-0.1c0-0.2,0-0.5-0.1-0.7
			s-0.2-0.4-0.3-0.5s-0.3-0.3-0.4-0.4s-0.4-0.1-0.6-0.1c-0.2,0-0.4,0-0.5,0.1s-0.3,0.1-0.4,0.2s-0.2,0.2-0.3,0.4s-0.1,0.3-0.1,0.5
			V89.4z"/>
		<path d="M42.9,83.6h1.6v6.7c0,0.1,0,0.2,0.1,0.3s0.2,0.1,0.4,0.1c0.1,0,0.1,0,0.2,0s0.1,0,0.2,0l0.1,1.4c-0.1,0-0.2,0-0.4,0
			c-0.1,0-0.2,0-0.4,0s-0.3,0-0.4,0c-0.2,0-0.4,0-0.6-0.1s-0.3-0.1-0.5-0.3s-0.2-0.3-0.3-0.4s-0.1-0.4-0.1-0.6V83.6z"/>
		<path d="M46.3,84.1c0-0.1,0-0.3,0.1-0.4s0.1-0.2,0.2-0.3s0.2-0.2,0.3-0.2s0.2-0.1,0.4-0.1c0.1,0,0.3,0,0.4,0.1s0.2,0.1,0.3,0.2
			s0.2,0.2,0.2,0.3s0.1,0.2,0.1,0.4c0,0.1,0,0.3-0.1,0.4s-0.1,0.2-0.2,0.3s-0.2,0.2-0.3,0.2s-0.2,0.1-0.4,0.1c-0.1,0-0.3,0-0.4-0.1
			s-0.2-0.1-0.3-0.2s-0.2-0.2-0.2-0.3S46.3,84.2,46.3,84.1z M48.1,92h-1.6v-6.3h1.6V92z"/>
		<path d="M50.9,88.9c0,0.2,0,0.4,0.1,0.6s0.1,0.4,0.3,0.6s0.3,0.3,0.4,0.4s0.4,0.2,0.6,0.2c0.2,0,0.3,0,0.4-0.1s0.2-0.1,0.4-0.2
			s0.2-0.2,0.3-0.3s0.1-0.2,0.2-0.3l1.4,0.7c-0.1,0.2-0.2,0.5-0.4,0.7s-0.4,0.4-0.6,0.5s-0.5,0.2-0.8,0.3s-0.6,0.1-0.9,0.1
			c-0.4,0-0.8-0.1-1.2-0.2s-0.7-0.4-1-0.7s-0.5-0.6-0.6-1s-0.2-0.8-0.2-1.3c0-0.5,0.1-0.9,0.2-1.3s0.4-0.7,0.6-1s0.6-0.5,1-0.7
			s0.8-0.2,1.2-0.2c0.3,0,0.6,0,0.9,0.1s0.5,0.2,0.8,0.3s0.4,0.3,0.6,0.5s0.3,0.4,0.4,0.7L53.6,88c-0.1-0.1-0.1-0.2-0.2-0.3
			s-0.2-0.2-0.3-0.3s-0.2-0.1-0.4-0.2s-0.3-0.1-0.4-0.1c-0.2,0-0.5,0.1-0.6,0.2s-0.3,0.2-0.4,0.4S51,88,51,88.2S50.9,88.6,50.9,88.9
			L50.9,88.9z"/>
		<path d="M59.5,91.4c-0.1,0.1-0.1,0.2-0.2,0.2s-0.2,0.2-0.3,0.2S58.6,92,58.5,92s-0.4,0.1-0.6,0.1c-0.3,0-0.6,0-0.9-0.1
			s-0.5-0.2-0.7-0.4s-0.4-0.4-0.5-0.6s-0.2-0.5-0.2-0.8c0-0.5,0.2-0.9,0.5-1.2s0.7-0.5,1.3-0.6l1.8-0.3v-0.1c0-0.3-0.1-0.5-0.3-0.7
			S58.5,87,58.2,87c-0.2,0-0.3,0-0.5,0.1s-0.3,0.1-0.5,0.1s-0.3,0.1-0.4,0.2s-0.2,0.1-0.3,0.2l-0.6-1.2c0.4-0.2,0.8-0.4,1.2-0.5
			s0.9-0.2,1.4-0.2c0.3,0,0.6,0,0.9,0.1s0.6,0.2,0.8,0.3s0.4,0.4,0.6,0.7s0.2,0.6,0.2,1.1v2.6c0,0.2,0,0.3,0.1,0.4s0.2,0.2,0.4,0.2
			l-0.7,1.2c-0.3,0-0.5-0.1-0.7-0.2S59.6,91.6,59.5,91.4z M58,89.5c-0.2,0-0.4,0.1-0.5,0.2s-0.2,0.3-0.2,0.4c0,0.2,0.1,0.4,0.2,0.5
			s0.4,0.2,0.7,0.2c0.3,0,0.5-0.1,0.7-0.3s0.3-0.4,0.3-0.7v-0.6L58,89.5z"/>
		<path d="M64.3,90.1c0,0.1,0,0.1,0,0.2s0.1,0.1,0.1,0.2s0.1,0.1,0.2,0.1s0.2,0,0.3,0c0.1,0,0.1,0,0.2,0s0.1,0,0.2,0s0.1,0,0.2,0
			s0.1,0,0.2,0L66,92c-0.2,0-0.3,0-0.5,0.1c-0.1,0-0.3,0-0.5,0s-0.3,0-0.5,0c-0.6,0-1-0.1-1.3-0.4s-0.5-0.7-0.5-1.2v-3.4h-1.1v-1.4
			h1.1v-1.8l1.6-0.4v2.2H66v1.4h-1.6V90.1z"/>
		<path d="M66.9,84.1c0-0.1,0-0.3,0.1-0.4s0.1-0.2,0.2-0.3s0.2-0.2,0.3-0.2s0.2-0.1,0.4-0.1c0.1,0,0.3,0,0.4,0.1s0.2,0.1,0.3,0.2
			s0.2,0.2,0.2,0.3s0.1,0.2,0.1,0.4c0,0.1,0,0.3-0.1,0.4s-0.1,0.2-0.2,0.3s-0.2,0.2-0.3,0.2s-0.2,0.1-0.4,0.1c-0.1,0-0.3,0-0.4-0.1
			s-0.2-0.1-0.3-0.2S67,84.6,67,84.5S66.9,84.2,66.9,84.1z M68.7,92h-1.6v-6.3h1.6V92z"/>
		<path d="M72.9,85.6c0.5,0,0.9,0.1,1.3,0.2s0.7,0.4,1,0.7s0.5,0.6,0.6,1s0.2,0.8,0.2,1.3c0,0.5-0.1,0.9-0.2,1.3s-0.4,0.7-0.6,1
			s-0.6,0.5-1,0.7s-0.8,0.2-1.3,0.2c-0.5,0-0.9-0.1-1.3-0.2s-0.7-0.4-1-0.7s-0.5-0.6-0.6-1s-0.2-0.8-0.2-1.3c0-0.5,0.1-0.9,0.2-1.3
			s0.4-0.7,0.6-1s0.6-0.5,1-0.7S72.4,85.6,72.9,85.6z M72.9,90.6c0.2,0,0.4,0,0.6-0.1s0.3-0.2,0.4-0.4s0.2-0.3,0.3-0.5
			s0.1-0.4,0.1-0.7v0c0-0.3,0-0.5-0.1-0.7s-0.2-0.4-0.3-0.6s-0.3-0.3-0.4-0.4s-0.4-0.1-0.6-0.1s-0.4,0-0.6,0.1s-0.3,0.2-0.4,0.4
			s-0.2,0.3-0.3,0.6s-0.1,0.4-0.1,0.7v0c0,0.3,0,0.5,0.1,0.7s0.2,0.4,0.3,0.5s0.3,0.3,0.4,0.4S72.6,90.6,72.9,90.6z"/>
		<path d="M77.1,85.7h1.6v0.5c0.1-0.1,0.2-0.2,0.3-0.2s0.2-0.2,0.4-0.2s0.3-0.1,0.4-0.1s0.3-0.1,0.5-0.1c0.3,0,0.6,0.1,0.9,0.2
			s0.5,0.3,0.7,0.5s0.3,0.4,0.4,0.7s0.1,0.5,0.1,0.8V92h-1.6v-3.7c0-0.2,0-0.4-0.1-0.6s-0.1-0.3-0.2-0.4s-0.2-0.2-0.3-0.2
			s-0.2-0.1-0.4-0.1c-0.2,0-0.3,0-0.5,0.1s-0.3,0.1-0.4,0.3s-0.2,0.3-0.2,0.4s-0.1,0.4-0.1,0.6V92h-1.6V85.7z"/>
		<path d="M86.5,90c0.2,0.2,0.5,0.4,0.8,0.5c0.3,0.1,0.6,0.2,1,0.2c0.2,0,0.4,0,0.6-0.1s0.2-0.2,0.2-0.4c0-0.2-0.3-0.4-0.8-0.6
			l-0.5-0.1c-0.2-0.1-0.5-0.1-0.7-0.2s-0.4-0.2-0.6-0.4s-0.3-0.3-0.5-0.6s-0.2-0.5-0.2-0.8c0-0.3,0.1-0.5,0.2-0.7s0.3-0.4,0.5-0.6
			s0.5-0.3,0.8-0.4s0.6-0.2,1-0.2c0.5,0,1,0.1,1.4,0.3s0.8,0.4,1,0.6l-0.8,1.1c-0.2-0.1-0.4-0.3-0.7-0.4S88.7,87,88.4,87
			c-0.3,0-0.5,0-0.6,0.1c-0.1,0.1-0.2,0.2-0.2,0.3c0,0.1,0.1,0.2,0.2,0.3c0.1,0.1,0.3,0.2,0.5,0.2l0.7,0.2c0.6,0.2,1.1,0.4,1.4,0.7
			s0.4,0.7,0.4,1.2c0,0.3-0.1,0.5-0.2,0.8s-0.3,0.5-0.5,0.6s-0.5,0.3-0.8,0.4s-0.7,0.2-1.1,0.2c-0.3,0-0.6,0-0.9-0.1
			s-0.5-0.1-0.7-0.2s-0.4-0.2-0.6-0.3s-0.3-0.2-0.5-0.4L86.5,90z"/>
		<path d="M97.2,92h-1.6v-0.5c-0.1,0.1-0.2,0.2-0.3,0.2s-0.2,0.2-0.4,0.2s-0.3,0.1-0.4,0.1s-0.3,0.1-0.5,0.1c-0.3,0-0.6-0.1-0.9-0.2
			s-0.5-0.3-0.7-0.5s-0.3-0.4-0.4-0.7s-0.1-0.5-0.1-0.8v-4.2h1.6v3.6c0,0.2,0,0.4,0.1,0.6s0.1,0.3,0.2,0.4s0.2,0.2,0.3,0.2
			s0.3,0.1,0.4,0.1c0.2,0,0.3,0,0.5-0.1s0.3-0.1,0.4-0.3s0.2-0.3,0.2-0.4s0.1-0.4,0.1-0.6v-3.4h1.6V92z"/>
		<path d="M104.6,88.9c0,0.5-0.1,0.9-0.2,1.3s-0.3,0.7-0.6,1s-0.5,0.5-0.9,0.7s-0.7,0.2-1.1,0.2c-0.2,0-0.4,0-0.5,0
			s-0.3-0.1-0.4-0.1s-0.2-0.1-0.3-0.2s-0.2-0.2-0.3-0.3V92h-1.6v-8.4h1.6v2.7c0.2-0.2,0.4-0.3,0.7-0.5s0.6-0.2,0.9-0.2
			c0.4,0,0.8,0.1,1.1,0.2s0.6,0.4,0.9,0.7s0.4,0.6,0.6,1S104.6,88.4,104.6,88.9z M100.2,89.4c0,0.2,0,0.3,0.1,0.5s0.1,0.3,0.3,0.4
			s0.2,0.2,0.4,0.2s0.3,0.1,0.5,0.1c0.2,0,0.4,0,0.6-0.1s0.3-0.2,0.4-0.4s0.2-0.3,0.3-0.5s0.1-0.4,0.1-0.7v-0.1c0-0.2,0-0.5-0.1-0.7
			s-0.2-0.4-0.3-0.5s-0.3-0.3-0.4-0.4s-0.4-0.1-0.6-0.1c-0.2,0-0.4,0-0.5,0.1s-0.3,0.1-0.4,0.2s-0.2,0.2-0.3,0.4s-0.1,0.3-0.1,0.5
			V89.4z"/>
		<path d="M111,92h-1.6v-3.7c0-0.2,0-0.4-0.1-0.6s-0.1-0.3-0.2-0.4s-0.2-0.2-0.3-0.2s-0.2-0.1-0.4-0.1c-0.2,0-0.3,0-0.4,0.1
			s-0.3,0.1-0.4,0.3s-0.2,0.3-0.2,0.4s-0.1,0.4-0.1,0.6V92h-1.6v-6.3h1.6v0.6c0.2-0.2,0.4-0.4,0.7-0.5c0.3-0.1,0.6-0.2,0.9-0.2
			c0.3,0,0.6,0.1,0.9,0.2s0.5,0.4,0.7,0.7c0.1-0.2,0.2-0.3,0.4-0.4s0.3-0.2,0.5-0.3s0.3-0.1,0.5-0.1s0.4,0,0.5,0
			c0.4,0,0.7,0.1,0.9,0.2c0.3,0.1,0.5,0.3,0.7,0.5c0.2,0.2,0.3,0.4,0.4,0.7s0.2,0.5,0.2,0.8V92h-1.6v-3.7c0-0.2,0-0.4-0.1-0.6
			s-0.1-0.3-0.2-0.4c-0.1-0.1-0.2-0.2-0.3-0.2c-0.1,0-0.2-0.1-0.4-0.1c-0.2,0-0.3,0-0.4,0.1c-0.1,0.1-0.2,0.1-0.3,0.3
			c-0.1,0.1-0.2,0.3-0.2,0.4c-0.1,0.2-0.1,0.4-0.1,0.6V92z"/>
		<path d="M116,84.1c0-0.1,0-0.3,0.1-0.4s0.1-0.2,0.2-0.3s0.2-0.2,0.3-0.2s0.2-0.1,0.4-0.1c0.1,0,0.3,0,0.4,0.1s0.2,0.1,0.3,0.2
			s0.2,0.2,0.2,0.3s0.1,0.2,0.1,0.4c0,0.1,0,0.3-0.1,0.4s-0.1,0.2-0.2,0.3s-0.2,0.2-0.3,0.2s-0.2,0.1-0.4,0.1c-0.1,0-0.3,0-0.4-0.1
			s-0.2-0.1-0.3-0.2s-0.2-0.2-0.2-0.3S116,84.2,116,84.1z M117.7,92h-1.6v-6.3h1.6V92z"/>
		<path d="M121.5,90.1c0,0.1,0,0.1,0,0.2s0.1,0.1,0.1,0.2s0.1,0.1,0.2,0.1s0.2,0,0.3,0c0.1,0,0.1,0,0.2,0s0.1,0,0.2,0s0.1,0,0.2,0
			s0.1,0,0.2,0l0.1,1.4c-0.2,0-0.3,0-0.5,0.1c-0.1,0-0.3,0-0.5,0s-0.3,0-0.5,0c-0.6,0-1-0.1-1.3-0.4s-0.5-0.7-0.5-1.2v-3.4h-1.1
			v-1.4h1.1v-1.8l1.6-0.4v2.2h1.6v1.4h-1.6V90.1z"/>
		<path d="M125.6,89.4c0,0.2,0.1,0.4,0.2,0.5c0.1,0.2,0.2,0.3,0.3,0.4c0.1,0.1,0.3,0.2,0.5,0.3c0.2,0.1,0.4,0.1,0.6,0.1
			c0.2,0,0.5,0,0.8-0.1s0.5-0.2,0.8-0.4l0.8,1.1c-0.3,0.2-0.7,0.4-1.1,0.6c-0.4,0.2-0.9,0.2-1.4,0.2c-0.4,0-0.8-0.1-1.2-0.2
			c-0.4-0.1-0.7-0.4-1-0.6c-0.3-0.3-0.5-0.6-0.7-1s-0.2-0.9-0.2-1.4c0-0.5,0.1-0.9,0.2-1.3s0.4-0.7,0.6-1s0.6-0.5,0.9-0.7
			s0.8-0.2,1.2-0.2c0.4,0,0.8,0.1,1.2,0.2c0.4,0.2,0.7,0.4,0.9,0.6s0.5,0.6,0.6,1s0.2,0.8,0.2,1.3v0.7H125.6z M126.9,87
			c-0.3,0-0.6,0.1-0.9,0.3s-0.4,0.5-0.4,0.8h2.5c0-0.3-0.1-0.6-0.4-0.8S127.2,87,126.9,87z"/>
		<path d="M134.9,92v-0.5c-0.1,0.1-0.2,0.2-0.3,0.3s-0.2,0.1-0.3,0.2s-0.3,0.1-0.4,0.1s-0.3,0-0.5,0c-0.4,0-0.8-0.1-1.1-0.2
			s-0.6-0.4-0.9-0.7s-0.4-0.6-0.6-1s-0.2-0.8-0.2-1.3s0.1-0.9,0.2-1.3s0.3-0.7,0.6-1s0.5-0.5,0.9-0.7s0.7-0.2,1.1-0.2
			c0.4,0,0.7,0.1,0.9,0.2s0.5,0.3,0.6,0.5v-2.7h1.6V92H134.9z M135,88.3c0-0.2,0-0.3-0.1-0.5c-0.1-0.1-0.1-0.3-0.3-0.4
			c-0.1-0.1-0.2-0.2-0.4-0.2c-0.2-0.1-0.3-0.1-0.5-0.1c-0.2,0-0.4,0-0.6,0.1c-0.2,0.1-0.3,0.2-0.4,0.4c-0.1,0.2-0.2,0.3-0.3,0.5
			s-0.1,0.4-0.1,0.7v0.1c0,0.2,0,0.5,0.1,0.7s0.2,0.4,0.3,0.5c0.1,0.2,0.3,0.3,0.4,0.4c0.2,0.1,0.4,0.1,0.6,0.1c0.2,0,0.4,0,0.5-0.1
			c0.2-0.1,0.3-0.1,0.4-0.2c0.1-0.1,0.2-0.2,0.3-0.4c0.1-0.1,0.1-0.3,0.1-0.5V88.3z"/>
	</g>
	<g class="st2">
		<path class="st3" d="M20.7,102c0.3,0,0.5,0,0.7-0.1s0.3-0.1,0.4-0.2s0.2-0.2,0.2-0.4s0-0.3,0-0.6v-0.1h1v8.4h-1v-6.2h-1.6V102
			H20.7z"/>
		<path class="st3" d="M28.1,100.5c0.4,0,0.7,0,1,0.1s0.6,0.2,0.9,0.4s0.5,0.4,0.6,0.7s0.2,0.6,0.2,1c0,0.2,0,0.4-0.1,0.6
			s-0.1,0.4-0.2,0.5s-0.3,0.3-0.4,0.5s-0.4,0.2-0.7,0.3c0.3,0.1,0.6,0.2,0.8,0.3s0.4,0.3,0.5,0.5s0.2,0.4,0.3,0.6s0.1,0.4,0.1,0.7
			c0,0.4-0.1,0.7-0.3,1s-0.4,0.5-0.7,0.7s-0.6,0.3-1,0.4s-0.7,0.1-1.1,0.1s-0.8,0-1.1-0.1s-0.7-0.2-1-0.4s-0.5-0.4-0.7-0.7
			s-0.3-0.6-0.3-1c0-0.2,0-0.4,0.1-0.7s0.2-0.4,0.3-0.6s0.3-0.4,0.5-0.5s0.5-0.3,0.8-0.3c-0.3-0.1-0.5-0.2-0.7-0.3s-0.3-0.3-0.4-0.5
			s-0.2-0.3-0.2-0.5s-0.1-0.4-0.1-0.6c0-0.4,0.1-0.7,0.2-1s0.4-0.5,0.6-0.7s0.6-0.3,0.9-0.4S27.8,100.5,28.1,100.5z M26.1,106.7
			c0,0.3,0.1,0.5,0.2,0.7s0.3,0.4,0.4,0.5s0.4,0.2,0.6,0.3s0.5,0.1,0.8,0.1c0.3,0,0.5,0,0.8-0.1s0.5-0.2,0.6-0.3s0.3-0.3,0.4-0.5
			s0.2-0.4,0.2-0.7s-0.1-0.5-0.2-0.7s-0.3-0.4-0.4-0.5s-0.4-0.2-0.6-0.3s-0.5-0.1-0.8-0.1c-0.3,0-0.5,0-0.8,0.1s-0.5,0.2-0.6,0.3
			s-0.3,0.3-0.4,0.5S26.1,106.4,26.1,106.7z M26.4,102.8c0,0.2,0,0.4,0.1,0.6s0.2,0.3,0.4,0.5s0.3,0.2,0.6,0.3s0.4,0.1,0.7,0.1
			c0.2,0,0.4,0,0.7-0.1s0.4-0.2,0.6-0.3s0.3-0.3,0.4-0.5s0.1-0.4,0.1-0.6s0-0.4-0.1-0.6s-0.2-0.3-0.4-0.5s-0.3-0.2-0.6-0.3
			s-0.4-0.1-0.7-0.1c-0.2,0-0.5,0-0.7,0.1s-0.4,0.2-0.6,0.3s-0.3,0.3-0.4,0.5S26.4,102.6,26.4,102.8z"/>
		<path class="st3" d="M34.3,108c0.1,0,0.3,0.1,0.4,0.1c0.1,0,0.2,0.1,0.4,0.1s0.2,0,0.3,0c0.3,0,0.5,0,0.7-0.1s0.3-0.2,0.4-0.3
			s0.1-0.3,0.2-0.5s0-0.4,0-0.7v-6h1v6.7c0,0.3-0.1,0.6-0.2,0.9s-0.3,0.4-0.5,0.6s-0.4,0.2-0.7,0.3s-0.5,0.1-0.8,0.1
			c-0.3,0-0.5,0-0.8-0.1s-0.5-0.1-0.7-0.2L34.3,108z"/>
		<path class="st3" d="M43.2,108.4c-0.2,0.2-0.4,0.4-0.7,0.5s-0.6,0.2-1.1,0.2c-0.3,0-0.6,0-0.8-0.1s-0.5-0.2-0.7-0.4
			s-0.3-0.3-0.4-0.6s-0.2-0.5-0.2-0.8c0-0.2,0-0.4,0.1-0.6s0.2-0.4,0.3-0.5s0.3-0.3,0.5-0.4s0.4-0.2,0.7-0.2l2.1-0.3v-0.4
			c0-0.2,0-0.4-0.1-0.6s-0.2-0.3-0.3-0.4s-0.3-0.2-0.4-0.2s-0.3-0.1-0.5-0.1c-0.3,0-0.6,0-0.9,0.1s-0.6,0.2-0.8,0.3l-0.4-0.8
			c0.3-0.2,0.7-0.3,1.1-0.4s0.7-0.1,1.1-0.1c0.7,0,1.3,0.2,1.7,0.5s0.6,0.8,0.6,1.4v2.8c0,0.2,0,0.4,0.1,0.5s0.2,0.2,0.4,0.3
			l-0.6,0.7c-0.2,0-0.3-0.1-0.5-0.2S43.2,108.6,43.2,108.4L43.2,108.4z M41.4,106.3c-0.2,0-0.3,0.1-0.4,0.1s-0.2,0.1-0.3,0.2
			s-0.2,0.2-0.2,0.3s-0.1,0.2-0.1,0.4c0,0.2,0,0.3,0.1,0.5s0.2,0.3,0.3,0.3s0.2,0.2,0.4,0.2s0.3,0.1,0.5,0.1c0.2,0,0.4,0,0.5-0.1
			s0.3-0.1,0.5-0.2s0.2-0.2,0.3-0.3s0.1-0.3,0.1-0.5v-1.2L41.4,106.3z"/>
		<path class="st3" d="M45.8,103h1v0.7c0.2-0.3,0.5-0.5,0.8-0.6s0.6-0.2,1-0.2c0.3,0,0.6,0.1,0.9,0.2s0.5,0.3,0.6,0.4
			s0.3,0.4,0.4,0.7s0.1,0.5,0.1,0.8v4.1h-1v-3.8c0-0.3,0-0.5-0.1-0.7s-0.2-0.3-0.3-0.5s-0.2-0.2-0.4-0.3s-0.3-0.1-0.5-0.1
			c-0.2,0-0.4,0-0.6,0.1s-0.3,0.2-0.5,0.3s-0.3,0.3-0.4,0.5s-0.1,0.5-0.1,0.7v3.6h-1V103z"/>
		<path class="st3" d="M57.1,109h-1v-0.7c-0.2,0.3-0.5,0.5-0.8,0.6s-0.6,0.2-1,0.2c-0.3,0-0.6-0.1-0.9-0.2s-0.5-0.3-0.6-0.4
			s-0.3-0.4-0.4-0.7s-0.1-0.5-0.1-0.8V103h1v3.8c0,0.3,0,0.5,0.1,0.7s0.2,0.3,0.3,0.4s0.2,0.2,0.4,0.3s0.3,0.1,0.5,0.1
			c0.2,0,0.4,0,0.6-0.1s0.3-0.2,0.5-0.3s0.3-0.3,0.3-0.5s0.1-0.5,0.1-0.7V103h1V109z"/>
		<path class="st3" d="M62.3,108.4c-0.2,0.2-0.4,0.4-0.7,0.5s-0.6,0.2-1.1,0.2c-0.3,0-0.6,0-0.8-0.1s-0.5-0.2-0.7-0.4
			s-0.3-0.3-0.4-0.6s-0.2-0.5-0.2-0.8c0-0.2,0-0.4,0.1-0.6s0.2-0.4,0.3-0.5s0.3-0.3,0.5-0.4s0.4-0.2,0.7-0.2l2.1-0.3v-0.4
			c0-0.2,0-0.4-0.1-0.6s-0.2-0.3-0.3-0.4s-0.3-0.2-0.4-0.2s-0.3-0.1-0.5-0.1c-0.3,0-0.6,0-0.9,0.1s-0.6,0.2-0.8,0.3l-0.4-0.8
			c0.3-0.2,0.7-0.3,1.1-0.4s0.7-0.1,1.1-0.1c0.7,0,1.3,0.2,1.7,0.5s0.6,0.8,0.6,1.4v2.8c0,0.2,0,0.4,0.1,0.5s0.2,0.2,0.4,0.3
			l-0.6,0.7c-0.2,0-0.3-0.1-0.5-0.2S62.4,108.6,62.3,108.4L62.3,108.4z M60.6,106.3c-0.2,0-0.3,0.1-0.4,0.1s-0.2,0.1-0.3,0.2
			s-0.2,0.2-0.2,0.3s-0.1,0.2-0.1,0.4c0,0.2,0,0.3,0.1,0.5s0.2,0.3,0.3,0.3s0.2,0.2,0.4,0.2s0.3,0.1,0.5,0.1c0.2,0,0.4,0,0.5-0.1
			s0.3-0.1,0.5-0.2s0.2-0.2,0.3-0.3s0.1-0.3,0.1-0.5v-1.2L60.6,106.3z"/>
		<path class="st3" d="M68.1,103.9h-0.2c-0.3,0-0.5,0-0.7,0.1s-0.4,0.2-0.6,0.3s-0.3,0.4-0.4,0.6s-0.2,0.6-0.2,1v3.1h-1v-6h1v0.9
			c0.1-0.2,0.2-0.3,0.3-0.5s0.3-0.2,0.4-0.3s0.3-0.2,0.5-0.2s0.4-0.1,0.6-0.1h0.3V103.9z"/>
		<path class="st3" d="M68.6,103h1.1l1.5,4.9l1.4-4.9h1.1l-2.2,6.9c-0.1,0.2-0.2,0.4-0.3,0.5s-0.2,0.2-0.4,0.3s-0.3,0.1-0.4,0.2
			s-0.3,0-0.5,0c-0.2,0-0.3,0-0.5,0s-0.4,0-0.6-0.1L69,110c0.1,0,0.2,0,0.3,0c0.1,0,0.2,0,0.3,0s0.2,0,0.3,0c0.2,0,0.4,0,0.5-0.1
			s0.2-0.2,0.3-0.5l0.1-0.3L68.6,103z"/>
		<path class="st3" d="M78.4,108.1h4.2v0.9H77v-1c0.5-0.4,1-0.7,1.4-1s0.8-0.6,1.1-0.9s0.6-0.5,0.8-0.8s0.4-0.5,0.6-0.7
			s0.3-0.5,0.3-0.7s0.1-0.5,0.1-0.8c0-0.2,0-0.5-0.1-0.7s-0.2-0.4-0.3-0.6s-0.3-0.3-0.6-0.4s-0.5-0.1-0.8-0.1c-0.2,0-0.4,0-0.7,0.1
			s-0.4,0.2-0.6,0.3s-0.3,0.3-0.4,0.5s-0.2,0.5-0.2,0.8l-1-0.1c0-0.4,0.1-0.7,0.2-1.1s0.3-0.6,0.6-0.8s0.5-0.4,0.9-0.5
			s0.7-0.2,1.1-0.2c0.4,0,0.8,0.1,1.1,0.2s0.6,0.3,0.9,0.5s0.4,0.5,0.6,0.8s0.2,0.7,0.2,1c0,0.4-0.1,0.9-0.2,1.3s-0.4,0.8-0.7,1.2
			s-0.7,0.8-1.2,1.2s-1.1,0.8-1.7,1.2L78.4,108.1L78.4,108.1z"/>
		<path class="st3" d="M87.2,100.5c0.4,0,0.7,0.1,1,0.2s0.5,0.3,0.8,0.5s0.4,0.4,0.6,0.7s0.3,0.6,0.4,0.9s0.2,0.7,0.2,1
			s0.1,0.7,0.1,1.1s0,0.7-0.1,1.1s-0.1,0.7-0.2,1s-0.2,0.6-0.4,0.9s-0.3,0.5-0.6,0.7s-0.5,0.4-0.8,0.5s-0.6,0.2-1,0.2
			s-0.7-0.1-1-0.2s-0.5-0.3-0.8-0.5s-0.4-0.4-0.6-0.7s-0.3-0.6-0.4-0.9s-0.2-0.7-0.2-1s-0.1-0.7-0.1-1.1s0-0.7,0.1-1.1
			s0.1-0.7,0.2-1s0.2-0.6,0.4-0.9s0.3-0.5,0.6-0.7s0.5-0.4,0.8-0.5S86.8,100.5,87.2,100.5z M87.2,108.2c0.3,0,0.5-0.1,0.8-0.2
			s0.4-0.4,0.6-0.6s0.3-0.6,0.4-1s0.1-0.8,0.1-1.4v-0.4c0-0.5,0-1-0.1-1.3s-0.2-0.7-0.4-1s-0.4-0.5-0.6-0.6s-0.5-0.2-0.8-0.2
			c-0.3,0-0.5,0.1-0.8,0.2s-0.4,0.4-0.6,0.6s-0.3,0.6-0.4,1s-0.1,0.8-0.1,1.3v0.4c0,0.5,0,1,0.1,1.4s0.2,0.7,0.4,1s0.4,0.5,0.6,0.6
			S86.9,108.2,87.2,108.2z"/>
		<path class="st3" d="M93.2,108.1h4.2v0.9h-5.6v-1c0.5-0.4,1-0.7,1.4-1s0.8-0.6,1.1-0.9s0.6-0.5,0.8-0.8s0.4-0.5,0.6-0.7
			s0.3-0.5,0.3-0.7s0.1-0.5,0.1-0.8c0-0.2,0-0.5-0.1-0.7s-0.2-0.4-0.3-0.6s-0.3-0.3-0.6-0.4s-0.5-0.1-0.8-0.1c-0.2,0-0.4,0-0.7,0.1
			s-0.4,0.2-0.6,0.3s-0.3,0.3-0.4,0.5s-0.2,0.5-0.2,0.8l-1-0.1c0-0.4,0.1-0.7,0.2-1.1s0.3-0.6,0.6-0.8s0.5-0.4,0.9-0.5
			s0.7-0.2,1.1-0.2c0.4,0,0.8,0.1,1.1,0.2s0.6,0.3,0.9,0.5s0.4,0.5,0.6,0.8s0.2,0.7,0.2,1c0,0.4-0.1,0.9-0.2,1.3s-0.4,0.8-0.7,1.2
			s-0.7,0.8-1.2,1.2s-1.1,0.8-1.7,1.2L93.2,108.1L93.2,108.1z"/>
		<path class="st3" d="M98.9,102c0.3,0,0.5,0,0.7-0.1s0.3-0.1,0.4-0.2s0.2-0.2,0.2-0.4s0-0.3,0-0.6v-0.1h1v8.4h-1v-6.2h-1.6V102
			H98.9z"/>
	</g>
	<g class="st2">
		<path d="M20.9,5.6h3.4c0.4,0,0.8,0.1,1.2,0.2s0.6,0.3,0.9,0.6s0.4,0.5,0.6,0.9s0.2,0.7,0.2,1.1S27,9.2,26.8,9.5s-0.3,0.6-0.6,0.9
			s-0.6,0.4-0.9,0.6s-0.8,0.2-1.2,0.2h-1.5V14h-1.7V5.6z M25.3,8.4c0-0.2,0-0.4-0.1-0.5S25,7.5,24.9,7.4s-0.3-0.2-0.5-0.2
			S24,7.1,23.8,7.1h-1.2v2.6h1.2c0.2,0,0.4,0,0.6-0.1s0.3-0.1,0.5-0.2s0.2-0.2,0.3-0.4S25.3,8.6,25.3,8.4L25.3,8.4z"/>
		<path d="M31.5,9.3h-0.2c-0.2,0-0.5,0-0.7,0.1s-0.4,0.1-0.6,0.3s-0.3,0.3-0.4,0.5s-0.1,0.5-0.1,0.8v3H28V7.7h1.6v0.7
			c0.1-0.1,0.2-0.2,0.3-0.3s0.2-0.2,0.4-0.3s0.3-0.1,0.5-0.2s0.4-0.1,0.6-0.1h0.2V9.3z"/>
		<path d="M35.3,7.6c0.5,0,0.9,0.1,1.3,0.2s0.7,0.4,1,0.7s0.5,0.6,0.6,1s0.2,0.8,0.2,1.3c0,0.5-0.1,0.9-0.2,1.3s-0.4,0.7-0.6,1
			s-0.6,0.5-1,0.7s-0.8,0.2-1.3,0.2c-0.5,0-0.9-0.1-1.3-0.2s-0.7-0.4-1-0.7s-0.5-0.6-0.6-1s-0.2-0.8-0.2-1.3c0-0.5,0.1-0.9,0.2-1.3
			s0.4-0.7,0.6-1s0.6-0.5,1-0.7S34.9,7.6,35.3,7.6z M35.3,12.6c0.2,0,0.4,0,0.6-0.1s0.3-0.2,0.4-0.4s0.2-0.3,0.3-0.5
			s0.1-0.4,0.1-0.7v0c0-0.3,0-0.5-0.1-0.7s-0.2-0.4-0.3-0.6S36.1,9.3,36,9.2s-0.4-0.1-0.6-0.1s-0.4,0-0.6,0.1s-0.3,0.2-0.4,0.4
			s-0.2,0.3-0.3,0.6s-0.1,0.4-0.1,0.7v0c0,0.3,0,0.5,0.1,0.7s0.2,0.4,0.3,0.5s0.3,0.3,0.4,0.4S35.1,12.6,35.3,12.6z"/>
		<path d="M40.9,14L39,7.7h1.8l1.1,4.3L43,7.7h1.8L42.9,14H40.9z"/>
		<path d="M47,11.4c0,0.2,0.1,0.4,0.2,0.5c0.1,0.2,0.2,0.3,0.3,0.4c0.1,0.1,0.3,0.2,0.5,0.3c0.2,0.1,0.4,0.1,0.6,0.1
			c0.2,0,0.5,0,0.8-0.1s0.5-0.2,0.8-0.4l0.8,1.1c-0.3,0.2-0.7,0.4-1.1,0.6s-0.9,0.2-1.4,0.2c-0.4,0-0.8-0.1-1.2-0.2s-0.7-0.4-1-0.6
			s-0.5-0.6-0.7-1c-0.2-0.4-0.2-0.9-0.2-1.4c0-0.5,0.1-0.9,0.2-1.3c0.1-0.4,0.4-0.7,0.6-1c0.3-0.3,0.6-0.5,0.9-0.7
			c0.4-0.2,0.8-0.2,1.2-0.2c0.4,0,0.8,0.1,1.2,0.2c0.4,0.2,0.7,0.4,0.9,0.6c0.3,0.3,0.5,0.6,0.6,1c0.1,0.4,0.2,0.8,0.2,1.3v0.7H47z
			 M48.3,9c-0.3,0-0.6,0.1-0.9,0.3s-0.4,0.5-0.4,0.8h2.5c0-0.3-0.1-0.6-0.4-0.8S48.7,9,48.3,9z"/>
		<path d="M56.4,14v-0.5c-0.1,0.1-0.2,0.2-0.3,0.3s-0.2,0.1-0.3,0.2s-0.3,0.1-0.4,0.1s-0.3,0-0.5,0c-0.4,0-0.8-0.1-1.1-0.2
			s-0.6-0.4-0.9-0.7s-0.4-0.6-0.6-1S52,11.3,52,10.9s0.1-0.9,0.2-1.3s0.3-0.7,0.6-1s0.5-0.5,0.9-0.7s0.7-0.2,1.1-0.2
			c0.4,0,0.7,0.1,0.9,0.2s0.5,0.3,0.6,0.5V5.6H58V14H56.4z M56.4,10.3c0-0.2,0-0.3-0.1-0.5c-0.1-0.1-0.1-0.3-0.3-0.4
			c-0.1-0.1-0.2-0.2-0.4-0.2s-0.3-0.1-0.5-0.1c-0.2,0-0.4,0-0.6,0.1c-0.2,0.1-0.3,0.2-0.4,0.4c-0.1,0.2-0.2,0.3-0.3,0.5
			c-0.1,0.2-0.1,0.4-0.1,0.7v0.1c0,0.2,0,0.5,0.1,0.7c0.1,0.2,0.2,0.4,0.3,0.5c0.1,0.2,0.3,0.3,0.4,0.4c0.2,0.1,0.4,0.1,0.6,0.1
			c0.2,0,0.4,0,0.5-0.1s0.3-0.1,0.4-0.2c0.1-0.1,0.2-0.2,0.3-0.4c0.1-0.1,0.1-0.3,0.1-0.5V10.3z"/>
		<path d="M61.8,5.6h1.7V14h-1.7V5.6z"/>
		<path d="M72.5,9.8c0,0.6-0.1,1.2-0.3,1.7s-0.4,1-0.8,1.3s-0.8,0.7-1.3,0.9S69.1,14,68.4,14h-3.1V5.6h3.1c0.7,0,1.3,0.1,1.8,0.3
			s0.9,0.5,1.3,0.9s0.6,0.8,0.8,1.3S72.5,9.2,72.5,9.8z M70.7,9.6c0-0.4,0-0.7-0.1-1s-0.2-0.6-0.4-0.8s-0.4-0.4-0.8-0.5
			s-0.7-0.2-1.1-0.2H67v5.4h1.3c0.4,0,0.8-0.1,1.1-0.2s0.6-0.3,0.8-0.5s0.3-0.5,0.4-0.8s0.1-0.6,0.1-1V9.6z"/>
	</g>
	<g class="st2">
		<path d="M21.5,22.6l2.1,4h0l2.1-4h1.1l-2.7,5V31h-1v-3.4l-2.7-5H21.5z"/>
		<path d="M27.7,28.3c0,0.3,0.1,0.5,0.2,0.8s0.2,0.4,0.4,0.6s0.4,0.3,0.6,0.4s0.5,0.1,0.7,0.1c0.3,0,0.6-0.1,0.9-0.2
			s0.5-0.3,0.7-0.4l0.5,0.7c-0.3,0.2-0.6,0.4-0.9,0.5s-0.7,0.2-1.2,0.2c-0.4,0-0.8-0.1-1.2-0.2s-0.7-0.4-0.9-0.6s-0.4-0.6-0.6-1
			s-0.2-0.8-0.2-1.2c0-0.5,0.1-0.9,0.2-1.3s0.3-0.7,0.6-1s0.5-0.5,0.9-0.6s0.7-0.2,1.1-0.2c0.4,0,0.8,0.1,1.1,0.2s0.6,0.4,0.8,0.6
			s0.4,0.6,0.5,1s0.2,0.8,0.2,1.2v0.3H27.7z M29.3,25.8c-0.2,0-0.5,0-0.7,0.1s-0.4,0.2-0.5,0.4s-0.2,0.4-0.3,0.6s-0.1,0.4-0.1,0.7
			h3.2c0-0.2,0-0.5-0.1-0.7s-0.2-0.4-0.3-0.6s-0.3-0.3-0.5-0.4S29.5,25.8,29.3,25.8z"/>
		<path d="M37.3,29.3c0,0.3-0.1,0.5-0.2,0.8s-0.3,0.4-0.5,0.6S36.2,30.9,36,31s-0.5,0.1-0.8,0.1c-0.4,0-0.9-0.1-1.3-0.2
			s-0.8-0.4-1.1-0.6l0.5-0.7c0.1,0.1,0.2,0.2,0.3,0.3s0.3,0.2,0.4,0.2s0.3,0.1,0.5,0.2s0.4,0.1,0.6,0.1c0.2,0,0.3,0,0.5-0.1
			s0.3-0.1,0.4-0.2s0.2-0.2,0.3-0.3s0.1-0.2,0.1-0.4c0-0.2,0-0.3-0.1-0.4s-0.2-0.2-0.3-0.3s-0.3-0.1-0.4-0.2s-0.3-0.1-0.5-0.2
			l-0.4-0.1c-0.2-0.1-0.4-0.2-0.6-0.2s-0.4-0.2-0.5-0.3s-0.3-0.3-0.4-0.5s-0.1-0.4-0.1-0.6c0-0.2,0-0.4,0.1-0.6s0.2-0.4,0.4-0.5
			s0.4-0.3,0.7-0.4s0.6-0.1,1-0.1c0.4,0,0.8,0.1,1.1,0.2s0.6,0.3,0.9,0.5l-0.5,0.7c-0.1-0.1-0.2-0.2-0.3-0.2s-0.2-0.1-0.4-0.2
			s-0.3-0.1-0.4-0.1s-0.3-0.1-0.4-0.1c-0.2,0-0.4,0-0.5,0.1s-0.3,0.1-0.4,0.2s-0.2,0.2-0.2,0.3s-0.1,0.2-0.1,0.3
			c0,0.1,0,0.3,0.1,0.3s0.1,0.2,0.2,0.2s0.2,0.1,0.3,0.2s0.3,0.1,0.4,0.1l0.5,0.2c0.2,0.1,0.4,0.2,0.6,0.2s0.4,0.2,0.5,0.3
			c0.2,0.1,0.3,0.3,0.4,0.5S37.3,29.1,37.3,29.3z"/>
	</g>
	<g class="st2">
		<path class="st3" d="M20.7,41c0.3,0,0.5,0,0.7-0.1s0.3-0.1,0.4-0.2s0.2-0.2,0.2-0.4s0-0.3,0-0.6v-0.1h1V48h-1v-6.2h-1.6V41H20.7z"
			/>
		<path class="st3" d="M31.2,43.6c0,0.4,0,0.8-0.1,1.1s-0.1,0.7-0.2,1.1s-0.3,0.7-0.4,0.9s-0.4,0.5-0.6,0.8s-0.5,0.4-0.9,0.5
			s-0.7,0.2-1.1,0.2c-0.3,0-0.6,0-0.8-0.1s-0.5-0.2-0.7-0.3s-0.4-0.3-0.6-0.4s-0.3-0.3-0.4-0.5l1-0.3c0.2,0.3,0.4,0.5,0.7,0.6
			s0.5,0.2,0.8,0.2c0.3,0,0.5,0,0.7-0.1s0.4-0.2,0.6-0.4s0.3-0.3,0.4-0.5s0.2-0.4,0.3-0.7s0.1-0.5,0.2-0.8s0.1-0.6,0.1-0.8h0
			c-0.1,0.1-0.2,0.3-0.3,0.4s-0.3,0.3-0.5,0.4s-0.4,0.2-0.7,0.3s-0.5,0.1-0.8,0.1c-0.4,0-0.8-0.1-1.1-0.2s-0.6-0.3-0.9-0.6
			s-0.4-0.5-0.6-0.9s-0.2-0.7-0.2-1.1c0-0.4,0.1-0.8,0.2-1.1s0.3-0.7,0.6-0.9s0.6-0.5,0.9-0.6s0.7-0.2,1.2-0.2
			c0.4,0,0.9,0.1,1.2,0.3s0.7,0.4,1,0.7s0.5,0.7,0.7,1.2s0.2,1,0.2,1.7V43.6z M30,42.3c0-0.3,0-0.6-0.1-0.8s-0.2-0.5-0.4-0.6
			s-0.4-0.3-0.6-0.4s-0.5-0.1-0.8-0.1c-0.3,0-0.5,0-0.8,0.1s-0.4,0.2-0.6,0.4s-0.3,0.4-0.4,0.6s-0.1,0.5-0.1,0.8
			c0,0.3,0,0.6,0.1,0.8s0.2,0.4,0.4,0.6s0.4,0.3,0.6,0.4s0.5,0.1,0.8,0.1c0.3,0,0.5,0,0.8-0.1s0.4-0.2,0.6-0.4s0.3-0.4,0.4-0.6
			S30,42.6,30,42.3z"/>
		<path class="st3" d="M34.4,47c0.1,0,0.3,0.1,0.4,0.1c0.1,0,0.2,0.1,0.4,0.1s0.2,0,0.3,0c0.3,0,0.5,0,0.7-0.1s0.3-0.2,0.4-0.3
			s0.1-0.3,0.2-0.5s0-0.4,0-0.7v-6h1v6.7c0,0.3-0.1,0.6-0.2,0.9s-0.3,0.4-0.5,0.6S36.7,48,36.5,48s-0.5,0.1-0.8,0.1
			c-0.3,0-0.5,0-0.8-0.1s-0.5-0.1-0.7-0.2L34.4,47z"/>
		<path class="st3" d="M43.2,47.4c-0.2,0.2-0.4,0.4-0.7,0.5s-0.6,0.2-1.1,0.2c-0.3,0-0.6,0-0.8-0.1s-0.5-0.2-0.7-0.4
			s-0.3-0.3-0.4-0.6s-0.2-0.5-0.2-0.8c0-0.2,0-0.4,0.1-0.6s0.2-0.4,0.3-0.5s0.3-0.3,0.5-0.4s0.4-0.2,0.7-0.2l2.1-0.3v-0.4
			c0-0.2,0-0.4-0.1-0.6s-0.2-0.3-0.3-0.4s-0.3-0.2-0.4-0.2s-0.3-0.1-0.5-0.1c-0.3,0-0.6,0-0.9,0.1s-0.6,0.2-0.8,0.3l-0.4-0.8
			c0.3-0.2,0.7-0.3,1.1-0.4s0.7-0.1,1.1-0.1c0.7,0,1.3,0.2,1.7,0.5s0.6,0.8,0.6,1.4v2.8c0,0.2,0,0.4,0.1,0.5s0.2,0.2,0.4,0.3
			L44,48.1c-0.2,0-0.3-0.1-0.5-0.2S43.3,47.6,43.2,47.4L43.2,47.4z M41.5,45.3c-0.2,0-0.3,0.1-0.4,0.1s-0.2,0.1-0.3,0.2
			s-0.2,0.2-0.2,0.3s-0.1,0.2-0.1,0.4c0,0.2,0,0.3,0.1,0.5s0.2,0.3,0.3,0.3s0.2,0.2,0.4,0.2s0.3,0.1,0.5,0.1c0.2,0,0.4,0,0.5-0.1
			s0.3-0.1,0.5-0.2s0.2-0.2,0.3-0.3s0.1-0.3,0.1-0.5v-1.2L41.5,45.3z"/>
		<path class="st3" d="M45.9,42h1v0.7c0.2-0.3,0.5-0.5,0.8-0.6s0.6-0.2,1-0.2c0.3,0,0.6,0.1,0.9,0.2s0.5,0.3,0.6,0.4
			s0.3,0.4,0.4,0.7s0.1,0.5,0.1,0.8V48h-1v-3.8c0-0.3,0-0.5-0.1-0.7s-0.2-0.3-0.3-0.5s-0.2-0.2-0.4-0.3s-0.3-0.1-0.5-0.1
			c-0.2,0-0.4,0-0.6,0.1s-0.3,0.2-0.5,0.3s-0.3,0.3-0.4,0.5s-0.1,0.5-0.1,0.7V48h-1V42z"/>
		<path class="st3" d="M57.1,48h-1v-0.7c-0.2,0.3-0.5,0.5-0.8,0.6s-0.6,0.2-1,0.2c-0.3,0-0.6-0.1-0.9-0.2s-0.5-0.3-0.6-0.4
			s-0.3-0.4-0.4-0.7s-0.1-0.5-0.1-0.8V42h1v3.8c0,0.3,0,0.5,0.1,0.7s0.2,0.3,0.3,0.4s0.2,0.2,0.4,0.3s0.3,0.1,0.5,0.1
			c0.2,0,0.4,0,0.6-0.1s0.3-0.2,0.5-0.3s0.3-0.3,0.3-0.5s0.1-0.5,0.1-0.7V42h1V48z"/>
		<path class="st3" d="M62.4,47.4c-0.2,0.2-0.4,0.4-0.7,0.5s-0.6,0.2-1.1,0.2c-0.3,0-0.6,0-0.8-0.1s-0.5-0.2-0.7-0.4
			s-0.3-0.3-0.4-0.6s-0.2-0.5-0.2-0.8c0-0.2,0-0.4,0.1-0.6s0.2-0.4,0.3-0.5s0.3-0.3,0.5-0.4s0.4-0.2,0.7-0.2l2.1-0.3v-0.4
			c0-0.2,0-0.4-0.1-0.6S62,43.1,61.9,43s-0.3-0.2-0.4-0.2s-0.3-0.1-0.5-0.1c-0.3,0-0.6,0-0.9,0.1s-0.6,0.2-0.8,0.3l-0.4-0.8
			c0.3-0.2,0.7-0.3,1.1-0.4s0.7-0.1,1.1-0.1c0.7,0,1.3,0.2,1.7,0.5s0.6,0.8,0.6,1.4v2.8c0,0.2,0,0.4,0.1,0.5s0.2,0.2,0.4,0.3
			l-0.6,0.7c-0.2,0-0.3-0.1-0.5-0.2S62.5,47.6,62.4,47.4L62.4,47.4z M60.6,45.3c-0.2,0-0.3,0.1-0.4,0.1s-0.2,0.1-0.3,0.2
			s-0.2,0.2-0.2,0.3s-0.1,0.2-0.1,0.4c0,0.2,0,0.3,0.1,0.5s0.2,0.3,0.3,0.3s0.2,0.2,0.4,0.2s0.3,0.1,0.5,0.1c0.2,0,0.4,0,0.5-0.1
			s0.3-0.1,0.5-0.2s0.2-0.2,0.3-0.3s0.1-0.3,0.1-0.5v-1.2L60.6,45.3z"/>
		<path class="st3" d="M68.1,42.9H68c-0.3,0-0.5,0-0.7,0.1s-0.4,0.2-0.6,0.3s-0.3,0.4-0.4,0.6s-0.2,0.6-0.2,1V48h-1v-6h1V43
			c0.1-0.2,0.2-0.3,0.3-0.5s0.3-0.2,0.4-0.3s0.3-0.2,0.5-0.2s0.4-0.1,0.6-0.1h0.3V42.9z"/>
		<path class="st3" d="M68.7,42h1.1l1.5,4.9l1.4-4.9h1.1l-2.2,6.9c-0.1,0.2-0.2,0.4-0.3,0.5s-0.2,0.2-0.4,0.3s-0.3,0.1-0.4,0.2
			s-0.3,0-0.5,0c-0.2,0-0.3,0-0.5,0s-0.4,0-0.6-0.1l0.1-0.9c0.1,0,0.2,0,0.3,0c0.1,0,0.2,0,0.3,0s0.2,0,0.3,0c0.2,0,0.4,0,0.5-0.1
			s0.2-0.2,0.3-0.5l0.1-0.3L68.7,42z"/>
		<path class="st3" d="M78.5,47.1h4.2V48h-5.6v-1c0.5-0.4,1-0.7,1.4-1s0.8-0.6,1.1-0.9s0.6-0.5,0.8-0.8s0.4-0.5,0.6-0.7
			s0.3-0.5,0.3-0.7s0.1-0.5,0.1-0.8c0-0.2,0-0.5-0.1-0.7s-0.2-0.4-0.3-0.6s-0.3-0.3-0.6-0.4s-0.5-0.1-0.8-0.1c-0.2,0-0.4,0-0.7,0.1
			s-0.4,0.2-0.6,0.3s-0.3,0.3-0.4,0.5S78,41.8,78,42.1L77,42c0-0.4,0.1-0.7,0.2-1.1s0.3-0.6,0.6-0.8s0.5-0.4,0.9-0.5
			s0.7-0.2,1.1-0.2c0.4,0,0.8,0.1,1.1,0.2s0.6,0.3,0.9,0.5s0.4,0.5,0.6,0.8s0.2,0.7,0.2,1c0,0.4-0.1,0.9-0.2,1.3s-0.4,0.8-0.7,1.2
			s-0.7,0.8-1.2,1.2s-1.1,0.8-1.7,1.2L78.5,47.1L78.5,47.1z"/>
		<path class="st3" d="M87.2,39.5c0.4,0,0.7,0.1,1,0.2s0.5,0.3,0.8,0.5s0.4,0.4,0.6,0.7s0.3,0.6,0.4,0.9s0.2,0.7,0.2,1
			s0.1,0.7,0.1,1.1s0,0.7-0.1,1.1s-0.1,0.7-0.2,1s-0.2,0.6-0.4,0.9s-0.3,0.5-0.6,0.7s-0.5,0.4-0.8,0.5s-0.6,0.2-1,0.2
			s-0.7-0.1-1-0.2s-0.5-0.3-0.8-0.5s-0.4-0.4-0.6-0.7s-0.3-0.6-0.4-0.9s-0.2-0.7-0.2-1s-0.1-0.7-0.1-1.1s0-0.7,0.1-1.1
			s0.1-0.7,0.2-1s0.2-0.6,0.4-0.9s0.3-0.5,0.6-0.7s0.5-0.4,0.8-0.5S86.9,39.5,87.2,39.5z M87.2,47.2c0.3,0,0.5-0.1,0.8-0.2
			s0.4-0.4,0.6-0.6s0.3-0.6,0.4-1s0.1-0.8,0.1-1.4v-0.4c0-0.5,0-1-0.1-1.3s-0.2-0.7-0.4-1s-0.4-0.5-0.6-0.6s-0.5-0.2-0.8-0.2
			c-0.3,0-0.5,0.1-0.8,0.2S86,41,85.9,41.2s-0.3,0.6-0.4,1s-0.1,0.8-0.1,1.3V44c0,0.5,0,1,0.1,1.4s0.2,0.7,0.4,1s0.4,0.5,0.6,0.6
			S86.9,47.2,87.2,47.2z"/>
		<path class="st3" d="M93.2,47.1h4.2V48h-5.6v-1c0.5-0.4,1-0.7,1.4-1s0.8-0.6,1.1-0.9s0.6-0.5,0.8-0.8s0.4-0.5,0.6-0.7
			s0.3-0.5,0.3-0.7s0.1-0.5,0.1-0.8c0-0.2,0-0.5-0.1-0.7s-0.2-0.4-0.3-0.6s-0.3-0.3-0.6-0.4s-0.5-0.1-0.8-0.1c-0.2,0-0.4,0-0.7,0.1
			s-0.4,0.2-0.6,0.3s-0.3,0.3-0.4,0.5s-0.2,0.5-0.2,0.8l-1-0.1c0-0.4,0.1-0.7,0.2-1.1s0.3-0.6,0.6-0.8s0.5-0.4,0.9-0.5
			s0.7-0.2,1.1-0.2c0.4,0,0.8,0.1,1.1,0.2s0.6,0.3,0.9,0.5s0.4,0.5,0.6,0.8s0.2,0.7,0.2,1c0,0.4-0.1,0.9-0.2,1.3s-0.4,0.8-0.7,1.2
			s-0.7,0.8-1.2,1.2s-1.1,0.8-1.7,1.2L93.2,47.1L93.2,47.1z"/>
		<path class="st3" d="M99,41c0.3,0,0.5,0,0.7-0.1s0.3-0.1,0.4-0.2s0.2-0.2,0.2-0.4s0-0.3,0-0.6v-0.1h1V48h-1v-6.2h-1.6V41H99z"/>
	</g>
</g>
</svg>
