<?xml version="1.0" encoding="utf-8"?>
<!-- Generator: Adobe Illustrator 25.0.1, SVG Export Plug-In . SVG Version: 6.00 Build 0)  -->
<svg version="1.1" id="Layer_1" xmlns="http://www.w3.org/2000/svg" xmlns:xlink="http://www.w3.org/1999/xlink" x="0px" y="0px"
	 viewBox="0 0 137 191" style="enable-background:new 0 0 137 191;" xml:space="preserve">
<style type="text/css">
	.st0{fill-rule:evenodd;clip-rule:evenodd;fill:#FFFFFF;}
	.st1{fill:none;stroke:#1D70B8;stroke-width:3;stroke-linecap:square;}
	.st2{enable-background:new    ;}
	.st3{fill:#505A5F;}
</style>
<g id="application-evidence-gnc">
	<rect class="st0" width="137" height="191"/>
	<line id="Line-2-Copy-6" class="st1" x1="1.5" y1="2" x2="1.5" y2="173"/>
	<line id="Line-3-Copy-21" class="st1" x1="2" y1="88" x2="12" y2="88"/>
	<line id="Line-3-Copy-22" class="st1" x1="2" y1="10" x2="12" y2="10"/>
	<line id="Line-3-Copy-23" class="st1" x1="2" y1="166" x2="12" y2="166"/>
	<g class="st2">
		<path d="M25.5,168.4h-3.1l-0.5,1.6h-1.8l2.7-8.4h2.2l2.8,8.4H26L25.5,168.4z M22.9,166.9h2.2l-1.1-3.6h0L22.9,166.9z"/>
		<path d="M30.4,172h-1.6v-8.3h1.6v0.5c0.2-0.2,0.4-0.3,0.7-0.5s0.6-0.2,0.9-0.2c0.4,0,0.8,0.1,1.1,0.2s0.6,0.4,0.9,0.7
			s0.4,0.6,0.6,1s0.2,0.8,0.2,1.3s-0.1,0.9-0.2,1.3s-0.3,0.7-0.6,1s-0.5,0.5-0.9,0.7s-0.7,0.2-1.1,0.2c-0.2,0-0.4,0-0.5,0
			s-0.3-0.1-0.4-0.1s-0.2-0.1-0.3-0.2s-0.2-0.2-0.3-0.3V172z M30.3,167.4c0,0.2,0,0.3,0.1,0.5s0.1,0.3,0.3,0.4s0.2,0.2,0.4,0.2
			s0.3,0.1,0.5,0.1c0.2,0,0.4,0,0.6-0.1s0.3-0.2,0.4-0.4s0.2-0.3,0.3-0.5s0.1-0.4,0.1-0.7v-0.1c0-0.2,0-0.5-0.1-0.7
			s-0.2-0.4-0.3-0.5s-0.3-0.3-0.4-0.4s-0.4-0.1-0.6-0.1c-0.2,0-0.4,0-0.5,0.1s-0.3,0.1-0.4,0.2s-0.2,0.2-0.3,0.4s-0.1,0.3-0.1,0.5
			V167.4z"/>
		<path d="M37.4,172h-1.6v-8.3h1.6v0.5c0.2-0.2,0.4-0.3,0.7-0.5s0.6-0.2,0.9-0.2c0.4,0,0.8,0.1,1.1,0.2s0.6,0.4,0.9,0.7
			s0.4,0.6,0.6,1s0.2,0.8,0.2,1.3s-0.1,0.9-0.2,1.3s-0.3,0.7-0.6,1s-0.5,0.5-0.9,0.7s-0.7,0.2-1.1,0.2c-0.2,0-0.4,0-0.5,0
			s-0.3-0.1-0.4-0.1s-0.2-0.1-0.3-0.2s-0.2-0.2-0.3-0.3V172z M37.4,167.4c0,0.2,0,0.3,0.1,0.5s0.1,0.3,0.3,0.4s0.2,0.2,0.4,0.2
			s0.3,0.1,0.5,0.1c0.2,0,0.4,0,0.6-0.1s0.3-0.2,0.4-0.4s0.2-0.3,0.3-0.5s0.1-0.4,0.1-0.7v-0.1c0-0.2,0-0.5-0.1-0.7
			s-0.2-0.4-0.3-0.5s-0.3-0.3-0.4-0.4s-0.4-0.1-0.6-0.1c-0.2,0-0.4,0-0.5,0.1s-0.3,0.1-0.4,0.2s-0.2,0.2-0.3,0.4s-0.1,0.3-0.1,0.5
			V167.4z"/>
		<path d="M42.9,161.6h1.6v6.7c0,0.1,0,0.2,0.1,0.3s0.2,0.1,0.4,0.1c0.1,0,0.1,0,0.2,0s0.1,0,0.2,0l0.1,1.4c-0.1,0-0.2,0-0.4,0
			c-0.1,0-0.2,0-0.4,0s-0.3,0-0.4,0c-0.2,0-0.4,0-0.6-0.1s-0.3-0.1-0.5-0.3s-0.2-0.3-0.3-0.4s-0.1-0.4-0.1-0.6V161.6z"/>
		<path d="M46.3,162.1c0-0.1,0-0.3,0.1-0.4s0.1-0.2,0.2-0.3s0.2-0.2,0.3-0.2s0.2-0.1,0.4-0.1c0.1,0,0.3,0,0.4,0.1s0.2,0.1,0.3,0.2
			s0.2,0.2,0.2,0.3s0.1,0.2,0.1,0.4c0,0.1,0,0.3-0.1,0.4s-0.1,0.2-0.2,0.3s-0.2,0.2-0.3,0.2s-0.2,0.1-0.4,0.1c-0.1,0-0.3,0-0.4-0.1
			s-0.2-0.1-0.3-0.2s-0.2-0.2-0.2-0.3S46.3,162.2,46.3,162.1z M48.1,170h-1.6v-6.3h1.6V170z"/>
		<path d="M50.9,166.9c0,0.2,0,0.4,0.1,0.6s0.1,0.4,0.3,0.6s0.3,0.3,0.4,0.4s0.4,0.2,0.6,0.2c0.2,0,0.3,0,0.4-0.1s0.2-0.1,0.4-0.2
			s0.2-0.2,0.3-0.3s0.1-0.2,0.2-0.3l1.4,0.7c-0.1,0.2-0.2,0.5-0.4,0.7s-0.4,0.4-0.6,0.5s-0.5,0.2-0.8,0.3s-0.6,0.1-0.9,0.1
			c-0.4,0-0.8-0.1-1.2-0.2s-0.7-0.4-1-0.7s-0.5-0.6-0.6-1s-0.2-0.8-0.2-1.3c0-0.5,0.1-0.9,0.2-1.3s0.4-0.7,0.6-1s0.6-0.5,1-0.7
			s0.8-0.2,1.2-0.2c0.3,0,0.6,0,0.9,0.1s0.5,0.2,0.8,0.3s0.4,0.3,0.6,0.5s0.3,0.4,0.4,0.7l-1.4,0.7c-0.1-0.1-0.1-0.2-0.2-0.3
			s-0.2-0.2-0.3-0.3s-0.2-0.1-0.4-0.2s-0.3-0.1-0.4-0.1c-0.2,0-0.5,0.1-0.6,0.2s-0.3,0.2-0.4,0.4S51,166,51,166.2
			S50.9,166.6,50.9,166.9L50.9,166.9z"/>
		<path d="M59.5,169.4c-0.1,0.1-0.1,0.2-0.2,0.2s-0.2,0.2-0.3,0.2s-0.3,0.1-0.5,0.2s-0.4,0.1-0.6,0.1c-0.3,0-0.6,0-0.9-0.1
			s-0.5-0.2-0.7-0.4s-0.4-0.4-0.5-0.6s-0.2-0.5-0.2-0.8c0-0.5,0.2-0.9,0.5-1.2s0.7-0.5,1.3-0.6l1.8-0.3v-0.1c0-0.3-0.1-0.5-0.3-0.7
			s-0.5-0.2-0.8-0.2c-0.2,0-0.3,0-0.5,0.1s-0.3,0.1-0.5,0.1s-0.3,0.1-0.4,0.2s-0.2,0.1-0.3,0.2l-0.6-1.2c0.4-0.2,0.8-0.4,1.2-0.5
			s0.9-0.2,1.4-0.2c0.3,0,0.6,0,0.9,0.1s0.6,0.2,0.8,0.3s0.4,0.4,0.6,0.7s0.2,0.6,0.2,1.1v2.6c0,0.2,0,0.3,0.1,0.4s0.2,0.2,0.4,0.2
			l-0.7,1.2c-0.3,0-0.5-0.1-0.7-0.2S59.6,169.6,59.5,169.4z M58,167.5c-0.2,0-0.4,0.1-0.5,0.2s-0.2,0.3-0.2,0.4
			c0,0.2,0.1,0.4,0.2,0.5s0.4,0.2,0.7,0.2c0.3,0,0.5-0.1,0.7-0.3s0.3-0.4,0.3-0.7v-0.6L58,167.5z"/>
		<path d="M64.3,168.1c0,0.1,0,0.1,0,0.2s0.1,0.1,0.1,0.2s0.1,0.1,0.2,0.1s0.2,0,0.3,0c0.1,0,0.1,0,0.2,0s0.1,0,0.2,0s0.1,0,0.2,0
			s0.1,0,0.2,0L66,170c-0.2,0-0.3,0-0.5,0.1c-0.1,0-0.3,0-0.5,0s-0.3,0-0.5,0c-0.6,0-1-0.1-1.3-0.4s-0.5-0.7-0.5-1.2v-3.4h-1.1v-1.4
			h1.1v-1.8l1.6-0.4v2.2H66v1.4h-1.6V168.1z"/>
		<path d="M66.9,162.1c0-0.1,0-0.3,0.1-0.4s0.1-0.2,0.2-0.3s0.2-0.2,0.3-0.2s0.2-0.1,0.4-0.1c0.1,0,0.3,0,0.4,0.1s0.2,0.1,0.3,0.2
			s0.2,0.2,0.2,0.3s0.1,0.2,0.1,0.4c0,0.1,0,0.3-0.1,0.4s-0.1,0.2-0.2,0.3s-0.2,0.2-0.3,0.2s-0.2,0.1-0.4,0.1c-0.1,0-0.3,0-0.4-0.1
			s-0.2-0.1-0.3-0.2s-0.2-0.2-0.2-0.3S66.9,162.2,66.9,162.1z M68.7,170h-1.6v-6.3h1.6V170z"/>
		<path d="M72.9,163.6c0.5,0,0.9,0.1,1.3,0.2s0.7,0.4,1,0.7s0.5,0.6,0.6,1s0.2,0.8,0.2,1.3c0,0.5-0.1,0.9-0.2,1.3s-0.4,0.7-0.6,1
			s-0.6,0.5-1,0.7s-0.8,0.2-1.3,0.2c-0.5,0-0.9-0.1-1.3-0.2s-0.7-0.4-1-0.7s-0.5-0.6-0.6-1s-0.2-0.8-0.2-1.3c0-0.5,0.1-0.9,0.2-1.3
			s0.4-0.7,0.6-1s0.6-0.5,1-0.7S72.4,163.6,72.9,163.6z M72.9,168.6c0.2,0,0.4,0,0.6-0.1s0.3-0.2,0.4-0.4s0.2-0.3,0.3-0.5
			s0.1-0.4,0.1-0.7v0c0-0.3,0-0.5-0.1-0.7s-0.2-0.4-0.3-0.6s-0.3-0.3-0.4-0.4s-0.4-0.1-0.6-0.1s-0.4,0-0.6,0.1s-0.3,0.2-0.4,0.4
			s-0.2,0.3-0.3,0.6s-0.1,0.4-0.1,0.7v0c0,0.3,0,0.5,0.1,0.7s0.2,0.4,0.3,0.5s0.3,0.3,0.4,0.4S72.6,168.6,72.9,168.6z"/>
		<path d="M77.1,163.7h1.6v0.5c0.1-0.1,0.2-0.2,0.3-0.2s0.2-0.2,0.4-0.2s0.3-0.1,0.4-0.1s0.3-0.1,0.5-0.1c0.3,0,0.6,0.1,0.9,0.2
			s0.5,0.3,0.7,0.5s0.3,0.4,0.4,0.7s0.1,0.5,0.1,0.8v4.2h-1.6v-3.7c0-0.2,0-0.4-0.1-0.6s-0.1-0.3-0.2-0.4s-0.2-0.2-0.3-0.2
			s-0.2-0.1-0.4-0.1c-0.2,0-0.3,0-0.5,0.1s-0.3,0.1-0.4,0.3s-0.2,0.3-0.2,0.4s-0.1,0.4-0.1,0.6v3.4h-1.6V163.7z"/>
		<path d="M86.5,168c0.2,0.2,0.5,0.4,0.8,0.5c0.3,0.1,0.6,0.2,1,0.2c0.2,0,0.4,0,0.6-0.1s0.2-0.2,0.2-0.4c0-0.2-0.3-0.4-0.8-0.6
			l-0.5-0.1c-0.2-0.1-0.5-0.1-0.7-0.2s-0.4-0.2-0.6-0.4s-0.3-0.3-0.5-0.6s-0.2-0.5-0.2-0.8c0-0.3,0.1-0.5,0.2-0.7s0.3-0.4,0.5-0.6
			s0.5-0.3,0.8-0.4s0.6-0.2,1-0.2c0.5,0,1,0.1,1.4,0.3s0.8,0.4,1,0.6l-0.8,1.1c-0.2-0.1-0.4-0.3-0.7-0.4s-0.5-0.2-0.8-0.2
			c-0.3,0-0.5,0-0.6,0.1c-0.1,0.1-0.2,0.2-0.2,0.3c0,0.1,0.1,0.2,0.2,0.3c0.1,0.1,0.3,0.2,0.5,0.2l0.7,0.2c0.6,0.2,1.1,0.4,1.4,0.7
			s0.4,0.7,0.4,1.2c0,0.3-0.1,0.5-0.2,0.8s-0.3,0.5-0.5,0.6s-0.5,0.3-0.8,0.4s-0.7,0.2-1.1,0.2c-0.3,0-0.6,0-0.9-0.1
			s-0.5-0.1-0.7-0.2s-0.4-0.2-0.6-0.3s-0.3-0.2-0.5-0.4L86.5,168z"/>
		<path d="M97.2,170h-1.6v-0.5c-0.1,0.1-0.2,0.2-0.3,0.2s-0.2,0.2-0.4,0.2s-0.3,0.1-0.4,0.1s-0.3,0.1-0.5,0.1
			c-0.3,0-0.6-0.1-0.9-0.2s-0.5-0.3-0.7-0.5s-0.3-0.4-0.4-0.7s-0.1-0.5-0.1-0.8v-4.2h1.6v3.6c0,0.2,0,0.4,0.1,0.6s0.1,0.3,0.2,0.4
			s0.2,0.2,0.3,0.2s0.3,0.1,0.4,0.1c0.2,0,0.3,0,0.5-0.1s0.3-0.1,0.4-0.3s0.2-0.3,0.2-0.4s0.1-0.4,0.1-0.6v-3.4h1.6V170z"/>
		<path d="M104.6,166.9c0,0.5-0.1,0.9-0.2,1.3s-0.3,0.7-0.6,1s-0.5,0.5-0.9,0.7s-0.7,0.2-1.1,0.2c-0.2,0-0.4,0-0.5,0
			s-0.3-0.1-0.4-0.1s-0.2-0.1-0.3-0.2s-0.2-0.2-0.3-0.3v0.5h-1.6v-8.4h1.6v2.7c0.2-0.2,0.4-0.3,0.7-0.5s0.6-0.2,0.9-0.2
			c0.4,0,0.8,0.1,1.1,0.2s0.6,0.4,0.9,0.7s0.4,0.6,0.6,1S104.6,166.4,104.6,166.9z M100.2,167.4c0,0.2,0,0.3,0.1,0.5
			s0.1,0.3,0.3,0.4s0.2,0.2,0.4,0.2s0.3,0.1,0.5,0.1c0.2,0,0.4,0,0.6-0.1s0.3-0.2,0.4-0.4s0.2-0.3,0.3-0.5s0.1-0.4,0.1-0.7v-0.1
			c0-0.2,0-0.5-0.1-0.7s-0.2-0.4-0.3-0.5s-0.3-0.3-0.4-0.4s-0.4-0.1-0.6-0.1c-0.2,0-0.4,0-0.5,0.1s-0.3,0.1-0.4,0.2
			s-0.2,0.2-0.3,0.4s-0.1,0.3-0.1,0.5V167.4z"/>
		<path d="M111,170h-1.6v-3.7c0-0.2,0-0.4-0.1-0.6s-0.1-0.3-0.2-0.4s-0.2-0.2-0.3-0.2s-0.2-0.1-0.4-0.1c-0.2,0-0.3,0-0.4,0.1
			s-0.3,0.1-0.4,0.3s-0.2,0.3-0.2,0.4s-0.1,0.4-0.1,0.6v3.4h-1.6v-6.3h1.6v0.6c0.2-0.2,0.4-0.4,0.7-0.5c0.3-0.1,0.6-0.2,0.9-0.2
			c0.3,0,0.6,0.1,0.9,0.2s0.5,0.4,0.7,0.7c0.1-0.2,0.2-0.3,0.4-0.4s0.3-0.2,0.5-0.3s0.3-0.1,0.5-0.1s0.4,0,0.5,0
			c0.4,0,0.7,0.1,0.9,0.2c0.3,0.1,0.5,0.3,0.7,0.5c0.2,0.2,0.3,0.4,0.4,0.7s0.2,0.5,0.2,0.8v4.3h-1.6v-3.7c0-0.2,0-0.4-0.1-0.6
			s-0.1-0.3-0.2-0.4c-0.1-0.1-0.2-0.2-0.3-0.2c-0.1,0-0.2-0.1-0.4-0.1c-0.2,0-0.3,0-0.4,0.1c-0.1,0.1-0.2,0.1-0.3,0.3
			c-0.1,0.1-0.2,0.3-0.2,0.4c-0.1,0.2-0.1,0.4-0.1,0.6V170z"/>
		<path d="M116,162.1c0-0.1,0-0.3,0.1-0.4s0.1-0.2,0.2-0.3s0.2-0.2,0.3-0.2s0.2-0.1,0.4-0.1c0.1,0,0.3,0,0.4,0.1s0.2,0.1,0.3,0.2
			s0.2,0.2,0.2,0.3s0.1,0.2,0.1,0.4c0,0.1,0,0.3-0.1,0.4s-0.1,0.2-0.2,0.3s-0.2,0.2-0.3,0.2s-0.2,0.1-0.4,0.1c-0.1,0-0.3,0-0.4-0.1
			s-0.2-0.1-0.3-0.2s-0.2-0.2-0.2-0.3S116,162.2,116,162.1z M117.7,170h-1.6v-6.3h1.6V170z"/>
		<path d="M121.5,168.1c0,0.1,0,0.1,0,0.2s0.1,0.1,0.1,0.2s0.1,0.1,0.2,0.1s0.2,0,0.3,0c0.1,0,0.1,0,0.2,0s0.1,0,0.2,0s0.1,0,0.2,0
			s0.1,0,0.2,0l0.1,1.4c-0.2,0-0.3,0-0.5,0.1c-0.1,0-0.3,0-0.5,0s-0.3,0-0.5,0c-0.6,0-1-0.1-1.3-0.4s-0.5-0.7-0.5-1.2v-3.4h-1.1
			v-1.4h1.1v-1.8l1.6-0.4v2.2h1.6v1.4h-1.6V168.1z"/>
		<path d="M125.6,167.4c0,0.2,0.1,0.4,0.2,0.5c0.1,0.2,0.2,0.3,0.3,0.4c0.1,0.1,0.3,0.2,0.5,0.3c0.2,0.1,0.4,0.1,0.6,0.1
			c0.2,0,0.5,0,0.8-0.1s0.5-0.2,0.8-0.4l0.8,1.1c-0.3,0.2-0.7,0.4-1.1,0.6c-0.4,0.2-0.9,0.2-1.4,0.2c-0.4,0-0.8-0.1-1.2-0.2
			c-0.4-0.1-0.7-0.4-1-0.6c-0.3-0.3-0.5-0.6-0.7-1s-0.2-0.9-0.2-1.4c0-0.5,0.1-0.9,0.2-1.3s0.4-0.7,0.6-1s0.6-0.5,0.9-0.7
			s0.8-0.2,1.2-0.2c0.4,0,0.8,0.1,1.2,0.2c0.4,0.2,0.7,0.4,0.9,0.6s0.5,0.6,0.6,1s0.2,0.8,0.2,1.3v0.7H125.6z M126.9,165
			c-0.3,0-0.6,0.1-0.9,0.3s-0.4,0.5-0.4,0.8h2.5c0-0.3-0.1-0.6-0.4-0.8S127.2,165,126.9,165z"/>
		<path d="M134.9,170v-0.5c-0.1,0.1-0.2,0.2-0.3,0.3s-0.2,0.1-0.3,0.2s-0.3,0.1-0.4,0.1s-0.3,0-0.5,0c-0.4,0-0.8-0.1-1.1-0.2
			s-0.6-0.4-0.9-0.7s-0.4-0.6-0.6-1s-0.2-0.8-0.2-1.3s0.1-0.9,0.2-1.3s0.3-0.7,0.6-1s0.5-0.5,0.9-0.7s0.7-0.2,1.1-0.2
			c0.4,0,0.7,0.1,0.9,0.2s0.5,0.3,0.6,0.5v-2.7h1.6v8.4H134.9z M135,166.3c0-0.2,0-0.3-0.1-0.5c-0.1-0.1-0.1-0.3-0.3-0.4
			c-0.1-0.1-0.2-0.2-0.4-0.2c-0.2-0.1-0.3-0.1-0.5-0.1c-0.2,0-0.4,0-0.6,0.1c-0.2,0.1-0.3,0.2-0.4,0.4c-0.1,0.2-0.2,0.3-0.3,0.5
			s-0.1,0.4-0.1,0.7v0.1c0,0.2,0,0.5,0.1,0.7s0.2,0.4,0.3,0.5c0.1,0.2,0.3,0.3,0.4,0.4c0.2,0.1,0.4,0.1,0.6,0.1c0.2,0,0.4,0,0.5-0.1
			c0.2-0.1,0.3-0.1,0.4-0.2c0.1-0.1,0.2-0.2,0.3-0.4c0.1-0.1,0.1-0.3,0.1-0.5V166.3z"/>
	</g>
	<g class="st2">
		<path class="st3" d="M20.7,180c0.3,0,0.5,0,0.7-0.1s0.3-0.1,0.4-0.2s0.2-0.2,0.2-0.4s0-0.3,0-0.6v-0.1h1v8.4h-1v-6.2h-1.6V180
			H20.7z"/>
		<path class="st3" d="M28.1,178.5c0.4,0,0.7,0,1,0.1s0.6,0.2,0.9,0.4s0.5,0.4,0.6,0.7s0.2,0.6,0.2,1c0,0.2,0,0.4-0.1,0.6
			s-0.1,0.4-0.2,0.5s-0.3,0.3-0.4,0.5s-0.4,0.2-0.7,0.3c0.3,0.1,0.6,0.2,0.8,0.3s0.4,0.3,0.5,0.5s0.2,0.4,0.3,0.6s0.1,0.4,0.1,0.7
			c0,0.4-0.1,0.7-0.3,1s-0.4,0.5-0.7,0.7s-0.6,0.3-1,0.4s-0.7,0.1-1.1,0.1s-0.8,0-1.1-0.1s-0.7-0.2-1-0.4s-0.5-0.4-0.7-0.7
			s-0.3-0.6-0.3-1c0-0.2,0-0.4,0.1-0.7s0.2-0.4,0.3-0.6s0.3-0.4,0.5-0.5s0.5-0.3,0.8-0.3c-0.3-0.1-0.5-0.2-0.7-0.3s-0.3-0.3-0.4-0.5
			s-0.2-0.3-0.2-0.5s-0.1-0.4-0.1-0.6c0-0.4,0.1-0.7,0.2-1s0.4-0.5,0.6-0.7s0.6-0.3,0.9-0.4S27.8,178.5,28.1,178.5z M26.1,184.7
			c0,0.3,0.1,0.5,0.2,0.7s0.3,0.4,0.4,0.5s0.4,0.2,0.6,0.3s0.5,0.1,0.8,0.1c0.3,0,0.5,0,0.8-0.1s0.5-0.2,0.6-0.3s0.3-0.3,0.4-0.5
			s0.2-0.4,0.2-0.7s-0.1-0.5-0.2-0.7s-0.3-0.4-0.4-0.5s-0.4-0.2-0.6-0.3s-0.5-0.1-0.8-0.1c-0.3,0-0.5,0-0.8,0.1s-0.5,0.2-0.6,0.3
			s-0.3,0.3-0.4,0.5S26.1,184.4,26.1,184.7z M26.4,180.8c0,0.2,0,0.4,0.1,0.6s0.2,0.3,0.4,0.5s0.3,0.2,0.6,0.3s0.4,0.1,0.7,0.1
			c0.2,0,0.4,0,0.7-0.1s0.4-0.2,0.6-0.3s0.3-0.3,0.4-0.5s0.1-0.4,0.1-0.6s0-0.4-0.1-0.6s-0.2-0.3-0.4-0.5s-0.3-0.2-0.6-0.3
			s-0.4-0.1-0.7-0.1c-0.2,0-0.5,0-0.7,0.1s-0.4,0.2-0.6,0.3s-0.3,0.3-0.4,0.5S26.4,180.6,26.4,180.8z"/>
		<path class="st3" d="M34.3,186c0.1,0,0.3,0.1,0.4,0.1c0.1,0,0.2,0.1,0.4,0.1s0.2,0,0.3,0c0.3,0,0.5,0,0.7-0.1s0.3-0.2,0.4-0.3
			s0.1-0.3,0.2-0.5s0-0.4,0-0.7v-6h1v6.7c0,0.3-0.1,0.6-0.2,0.9s-0.3,0.4-0.5,0.6s-0.4,0.2-0.7,0.3s-0.5,0.1-0.8,0.1
			c-0.3,0-0.5,0-0.8-0.1s-0.5-0.1-0.7-0.2L34.3,186z"/>
		<path class="st3" d="M43.2,186.4c-0.2,0.2-0.4,0.4-0.7,0.5s-0.6,0.2-1.1,0.2c-0.3,0-0.6,0-0.8-0.1s-0.5-0.2-0.7-0.4
			s-0.3-0.3-0.4-0.6s-0.2-0.5-0.2-0.8c0-0.2,0-0.4,0.1-0.6s0.2-0.4,0.3-0.5s0.3-0.3,0.5-0.4s0.4-0.2,0.7-0.2l2.1-0.3v-0.4
			c0-0.2,0-0.4-0.1-0.6s-0.2-0.3-0.3-0.4s-0.3-0.2-0.4-0.2s-0.3-0.1-0.5-0.1c-0.3,0-0.6,0-0.9,0.1s-0.6,0.2-0.8,0.3l-0.4-0.8
			c0.3-0.2,0.7-0.3,1.1-0.4s0.7-0.1,1.1-0.1c0.7,0,1.3,0.2,1.7,0.5s0.6,0.8,0.6,1.4v2.8c0,0.2,0,0.4,0.1,0.5s0.2,0.2,0.4,0.3
			l-0.6,0.7c-0.2,0-0.3-0.1-0.5-0.2S43.2,186.6,43.2,186.4L43.2,186.4z M41.4,184.3c-0.2,0-0.3,0.1-0.4,0.1s-0.2,0.1-0.3,0.2
			s-0.2,0.2-0.2,0.3s-0.1,0.2-0.1,0.4c0,0.2,0,0.3,0.1,0.5s0.2,0.3,0.3,0.3s0.2,0.2,0.4,0.2s0.3,0.1,0.5,0.1c0.2,0,0.4,0,0.5-0.1
			s0.3-0.1,0.5-0.2s0.2-0.2,0.3-0.3s0.1-0.3,0.1-0.5v-1.2L41.4,184.3z"/>
		<path class="st3" d="M45.8,181h1v0.7c0.2-0.3,0.5-0.5,0.8-0.6s0.6-0.2,1-0.2c0.3,0,0.6,0.1,0.9,0.2s0.5,0.3,0.6,0.4
			s0.3,0.4,0.4,0.7s0.1,0.5,0.1,0.8v4.1h-1v-3.8c0-0.3,0-0.5-0.1-0.7s-0.2-0.3-0.3-0.5s-0.2-0.2-0.4-0.3s-0.3-0.1-0.5-0.1
			c-0.2,0-0.4,0-0.6,0.1s-0.3,0.2-0.5,0.3s-0.3,0.3-0.4,0.5s-0.1,0.5-0.1,0.7v3.6h-1V181z"/>
		<path class="st3" d="M57.1,187h-1v-0.7c-0.2,0.3-0.5,0.5-0.8,0.6s-0.6,0.2-1,0.2c-0.3,0-0.6-0.1-0.9-0.2s-0.5-0.3-0.6-0.4
			s-0.3-0.4-0.4-0.7s-0.1-0.5-0.1-0.8V181h1v3.8c0,0.3,0,0.5,0.1,0.7s0.2,0.3,0.3,0.4s0.2,0.2,0.4,0.3s0.3,0.1,0.5,0.1
			c0.2,0,0.4,0,0.6-0.1s0.3-0.2,0.5-0.3s0.3-0.3,0.3-0.5s0.1-0.5,0.1-0.7V181h1V187z"/>
		<path class="st3" d="M62.3,186.4c-0.2,0.2-0.4,0.4-0.7,0.5s-0.6,0.2-1.1,0.2c-0.3,0-0.6,0-0.8-0.1s-0.5-0.2-0.7-0.4
			s-0.3-0.3-0.4-0.6s-0.2-0.5-0.2-0.8c0-0.2,0-0.4,0.1-0.6s0.2-0.4,0.3-0.5s0.3-0.3,0.5-0.4s0.4-0.2,0.7-0.2l2.1-0.3v-0.4
			c0-0.2,0-0.4-0.1-0.6s-0.2-0.3-0.3-0.4s-0.3-0.2-0.4-0.2s-0.3-0.1-0.5-0.1c-0.3,0-0.6,0-0.9,0.1s-0.6,0.2-0.8,0.3l-0.4-0.8
			c0.3-0.2,0.7-0.3,1.1-0.4s0.7-0.1,1.1-0.1c0.7,0,1.3,0.2,1.7,0.5s0.6,0.8,0.6,1.4v2.8c0,0.2,0,0.4,0.1,0.5s0.2,0.2,0.4,0.3
			l-0.6,0.7c-0.2,0-0.3-0.1-0.5-0.2S62.4,186.6,62.3,186.4L62.3,186.4z M60.6,184.3c-0.2,0-0.3,0.1-0.4,0.1s-0.2,0.1-0.3,0.2
			s-0.2,0.2-0.2,0.3s-0.1,0.2-0.1,0.4c0,0.2,0,0.3,0.1,0.5s0.2,0.3,0.3,0.3s0.2,0.2,0.4,0.2s0.3,0.1,0.5,0.1c0.2,0,0.4,0,0.5-0.1
			s0.3-0.1,0.5-0.2s0.2-0.2,0.3-0.3s0.1-0.3,0.1-0.5v-1.2L60.6,184.3z"/>
		<path class="st3" d="M68.1,181.9h-0.2c-0.3,0-0.5,0-0.7,0.1s-0.4,0.2-0.6,0.3s-0.3,0.4-0.4,0.6s-0.2,0.6-0.2,1v3.1h-1v-6h1v0.9
			c0.1-0.2,0.2-0.3,0.3-0.5s0.3-0.2,0.4-0.3s0.3-0.2,0.5-0.2s0.4-0.1,0.6-0.1h0.3V181.9z"/>
		<path class="st3" d="M68.6,181h1.1l1.5,4.9l1.4-4.9h1.1l-2.2,6.9c-0.1,0.2-0.2,0.4-0.3,0.5s-0.2,0.2-0.4,0.3s-0.3,0.1-0.4,0.2
			s-0.3,0-0.5,0c-0.2,0-0.3,0-0.5,0s-0.4,0-0.6-0.1L69,188c0.1,0,0.2,0,0.3,0c0.1,0,0.2,0,0.3,0s0.2,0,0.3,0c0.2,0,0.4,0,0.5-0.1
			s0.2-0.2,0.3-0.5l0.1-0.3L68.6,181z"/>
		<path class="st3" d="M78.4,186.1h4.2v0.9H77v-1c0.5-0.4,1-0.7,1.4-1s0.8-0.6,1.1-0.9s0.6-0.5,0.8-0.8s0.4-0.5,0.6-0.7
			s0.3-0.5,0.3-0.7s0.1-0.5,0.1-0.8c0-0.2,0-0.5-0.1-0.7s-0.2-0.4-0.3-0.6s-0.3-0.3-0.6-0.4s-0.5-0.1-0.8-0.1c-0.2,0-0.4,0-0.7,0.1
			s-0.4,0.2-0.6,0.3s-0.3,0.3-0.4,0.5s-0.2,0.5-0.2,0.8l-1-0.1c0-0.4,0.1-0.7,0.2-1.1s0.3-0.6,0.6-0.8s0.5-0.4,0.9-0.5
			s0.7-0.2,1.1-0.2c0.4,0,0.8,0.1,1.1,0.2s0.6,0.3,0.9,0.5s0.4,0.5,0.6,0.8s0.2,0.7,0.2,1c0,0.4-0.1,0.9-0.2,1.3s-0.4,0.8-0.7,1.2
			s-0.7,0.8-1.2,1.2s-1.1,0.8-1.7,1.2L78.4,186.1L78.4,186.1z"/>
		<path class="st3" d="M87.2,178.5c0.4,0,0.7,0.1,1,0.2s0.5,0.3,0.8,0.5s0.4,0.4,0.6,0.7s0.3,0.6,0.4,0.9s0.2,0.7,0.2,1
			s0.1,0.7,0.1,1.1s0,0.7-0.1,1.1s-0.1,0.7-0.2,1s-0.2,0.6-0.4,0.9s-0.3,0.5-0.6,0.7s-0.5,0.4-0.8,0.5s-0.6,0.2-1,0.2
			s-0.7-0.1-1-0.2s-0.5-0.3-0.8-0.5s-0.4-0.4-0.6-0.7s-0.3-0.6-0.4-0.9s-0.2-0.7-0.2-1s-0.1-0.7-0.1-1.1s0-0.7,0.1-1.1
			s0.1-0.7,0.2-1s0.2-0.6,0.4-0.9s0.3-0.5,0.6-0.7s0.5-0.4,0.8-0.5S86.8,178.5,87.2,178.5z M87.2,186.2c0.3,0,0.5-0.1,0.8-0.2
			s0.4-0.4,0.6-0.6s0.3-0.6,0.4-1s0.1-0.8,0.1-1.4v-0.4c0-0.5,0-1-0.1-1.3s-0.2-0.7-0.4-1s-0.4-0.5-0.6-0.6s-0.5-0.2-0.8-0.2
			c-0.3,0-0.5,0.1-0.8,0.2s-0.4,0.4-0.6,0.6s-0.3,0.6-0.4,1s-0.1,0.8-0.1,1.3v0.4c0,0.5,0,1,0.1,1.4s0.2,0.7,0.4,1s0.4,0.5,0.6,0.6
			S86.9,186.2,87.2,186.2z"/>
		<path class="st3" d="M93.2,186.1h4.2v0.9h-5.6v-1c0.5-0.4,1-0.7,1.4-1s0.8-0.6,1.1-0.9s0.6-0.5,0.8-0.8s0.4-0.5,0.6-0.7
			s0.3-0.5,0.3-0.7s0.1-0.5,0.1-0.8c0-0.2,0-0.5-0.1-0.7s-0.2-0.4-0.3-0.6s-0.3-0.3-0.6-0.4s-0.5-0.1-0.8-0.1c-0.2,0-0.4,0-0.7,0.1
			s-0.4,0.2-0.6,0.3s-0.3,0.3-0.4,0.5s-0.2,0.5-0.2,0.8l-1-0.1c0-0.4,0.1-0.7,0.2-1.1s0.3-0.6,0.6-0.8s0.5-0.4,0.9-0.5
			s0.7-0.2,1.1-0.2c0.4,0,0.8,0.1,1.1,0.2s0.6,0.3,0.9,0.5s0.4,0.5,0.6,0.8s0.2,0.7,0.2,1c0,0.4-0.1,0.9-0.2,1.3s-0.4,0.8-0.7,1.2
			s-0.7,0.8-1.2,1.2s-1.1,0.8-1.7,1.2L93.2,186.1L93.2,186.1z"/>
		<path class="st3" d="M98.9,180c0.3,0,0.5,0,0.7-0.1s0.3-0.1,0.4-0.2s0.2-0.2,0.2-0.4s0-0.3,0-0.6v-0.1h1v8.4h-1v-6.2h-1.6V180
			H98.9z"/>
	</g>
	<g class="st2">
		<path d="M20.9,5.6h5.7v1.5h-4v1.8h3.7v1.5h-3.7v2h4.2V14h-5.9V5.6z"/>
		<path d="M29.3,14l-1.9-6.3h1.8l1.1,4.3l1.2-4.3h1.8L31.3,14H29.3z"/>
		<path d="M33.9,6.1c0-0.1,0-0.3,0.1-0.4s0.1-0.2,0.2-0.3s0.2-0.2,0.3-0.2s0.2-0.1,0.4-0.1c0.1,0,0.3,0,0.4,0.1s0.2,0.1,0.3,0.2
			s0.2,0.2,0.2,0.3s0.1,0.2,0.1,0.4c0,0.1,0,0.3-0.1,0.4s-0.1,0.2-0.2,0.3S35.4,6.9,35.3,7S35,7.1,34.9,7.1c-0.1,0-0.3,0-0.4-0.1
			s-0.2-0.1-0.3-0.2S34,6.6,34,6.5S33.9,6.2,33.9,6.1z M35.7,14h-1.6V7.7h1.6V14z"/>
		<path d="M41.2,14v-0.5c-0.1,0.1-0.2,0.2-0.3,0.3s-0.2,0.1-0.3,0.2s-0.3,0.1-0.4,0.1s-0.3,0-0.5,0c-0.4,0-0.8-0.1-1.1-0.2
			s-0.6-0.4-0.9-0.7s-0.4-0.6-0.6-1s-0.2-0.8-0.2-1.3S36.9,10,37,9.6s0.3-0.7,0.6-1s0.5-0.5,0.9-0.7s0.7-0.2,1.1-0.2
			c0.4,0,0.7,0.1,0.9,0.2s0.5,0.3,0.6,0.5V5.6h1.6V14H41.2z M41.2,10.3c0-0.2,0-0.3-0.1-0.5c-0.1-0.1-0.1-0.3-0.3-0.4
			c-0.1-0.1-0.2-0.2-0.4-0.2s-0.3-0.1-0.5-0.1c-0.2,0-0.4,0-0.6,0.1c-0.2,0.1-0.3,0.2-0.4,0.4c-0.1,0.2-0.2,0.3-0.3,0.5
			c-0.1,0.2-0.1,0.4-0.1,0.7v0.1c0,0.2,0,0.5,0.1,0.7c0.1,0.2,0.2,0.4,0.3,0.5c0.1,0.2,0.3,0.3,0.4,0.4c0.2,0.1,0.4,0.1,0.6,0.1
			c0.2,0,0.4,0,0.5-0.1s0.3-0.1,0.4-0.2c0.1-0.1,0.2-0.2,0.3-0.4c0.1-0.1,0.1-0.3,0.1-0.5V10.3z"/>
		<path d="M45.6,11.4c0,0.2,0.1,0.4,0.2,0.5c0.1,0.2,0.2,0.3,0.3,0.4c0.1,0.1,0.3,0.2,0.5,0.3c0.2,0.1,0.4,0.1,0.6,0.1
			c0.2,0,0.5,0,0.8-0.1s0.5-0.2,0.8-0.4l0.8,1.1c-0.3,0.2-0.7,0.4-1.1,0.6s-0.9,0.2-1.4,0.2c-0.4,0-0.8-0.1-1.2-0.2s-0.7-0.4-1-0.6
			s-0.5-0.6-0.7-1c-0.2-0.4-0.2-0.9-0.2-1.4c0-0.5,0.1-0.9,0.2-1.3c0.1-0.4,0.4-0.7,0.6-1C45,8.2,45.3,8,45.7,7.9
			c0.4-0.2,0.8-0.2,1.2-0.2c0.4,0,0.8,0.1,1.2,0.2C48.4,8,48.7,8.2,49,8.5c0.3,0.3,0.5,0.6,0.6,1c0.1,0.4,0.2,0.8,0.2,1.3v0.7H45.6z
			 M46.9,9c-0.3,0-0.6,0.1-0.9,0.3s-0.4,0.5-0.4,0.8h2.5c0-0.3-0.1-0.6-0.4-0.8S47.2,9,46.9,9z"/>
		<path d="M50.9,7.7h1.6v0.5c0.1-0.1,0.2-0.2,0.3-0.2s0.2-0.2,0.4-0.2s0.3-0.1,0.4-0.1s0.3-0.1,0.5-0.1c0.3,0,0.6,0.1,0.9,0.2
			s0.5,0.3,0.7,0.5s0.3,0.4,0.4,0.7s0.1,0.5,0.1,0.8V14h-1.6v-3.7c0-0.2,0-0.4-0.1-0.6s-0.1-0.3-0.2-0.4s-0.2-0.2-0.3-0.2
			s-0.2-0.1-0.4-0.1c-0.2,0-0.3,0-0.5,0.1S53,9.4,52.9,9.5s-0.2,0.3-0.2,0.4s-0.1,0.4-0.1,0.6V14h-1.6V7.7z"/>
		<path d="M59,10.9c0,0.2,0,0.4,0.1,0.6s0.1,0.4,0.3,0.6s0.3,0.3,0.4,0.4s0.4,0.2,0.6,0.2c0.2,0,0.3,0,0.4-0.1s0.2-0.1,0.4-0.2
			s0.2-0.2,0.3-0.3s0.1-0.2,0.2-0.3l1.4,0.7c-0.1,0.2-0.2,0.5-0.4,0.7s-0.4,0.4-0.6,0.5s-0.5,0.2-0.8,0.3s-0.6,0.1-0.9,0.1
			c-0.4,0-0.8-0.1-1.2-0.2s-0.7-0.4-1-0.7s-0.5-0.6-0.6-1s-0.2-0.8-0.2-1.3c0-0.5,0.1-0.9,0.2-1.3s0.4-0.7,0.6-1s0.6-0.5,1-0.7
			s0.8-0.2,1.2-0.2c0.3,0,0.6,0,0.9,0.1s0.5,0.2,0.8,0.3s0.4,0.3,0.6,0.5S63,9,63.1,9.2L61.7,10c-0.1-0.1-0.1-0.2-0.2-0.3
			s-0.2-0.2-0.3-0.3S61,9.2,60.9,9.2s-0.3-0.1-0.4-0.1c-0.2,0-0.5,0.1-0.6,0.2s-0.3,0.2-0.4,0.4s-0.2,0.4-0.3,0.6S59,10.6,59,10.9
			L59,10.9z"/>
		<path d="M65.5,11.4c0,0.2,0.1,0.4,0.2,0.5c0.1,0.2,0.2,0.3,0.3,0.4c0.1,0.1,0.3,0.2,0.5,0.3c0.2,0.1,0.4,0.1,0.6,0.1
			c0.2,0,0.5,0,0.8-0.1s0.5-0.2,0.8-0.4l0.8,1.1c-0.3,0.2-0.7,0.4-1.1,0.6s-0.9,0.2-1.4,0.2c-0.4,0-0.8-0.1-1.2-0.2s-0.7-0.4-1-0.6
			s-0.5-0.6-0.7-1c-0.2-0.4-0.2-0.9-0.2-1.4c0-0.5,0.1-0.9,0.2-1.3c0.1-0.4,0.4-0.7,0.6-1c0.3-0.3,0.6-0.5,0.9-0.7
			c0.4-0.2,0.8-0.2,1.2-0.2c0.4,0,0.8,0.1,1.2,0.2c0.4,0.2,0.7,0.4,0.9,0.6c0.3,0.3,0.5,0.6,0.6,1s0.2,0.8,0.2,1.3v0.7H65.5z
			 M66.8,9c-0.3,0-0.6,0.1-0.9,0.3s-0.4,0.5-0.4,0.8h2.5c0-0.3-0.1-0.6-0.4-0.8S67.2,9,66.8,9z"/>
		<path d="M78.4,14h-1.6v-0.5c-0.1,0.1-0.2,0.2-0.3,0.2s-0.2,0.2-0.4,0.2s-0.3,0.1-0.4,0.1s-0.3,0.1-0.5,0.1c-0.3,0-0.6-0.1-0.9-0.2
			s-0.5-0.3-0.7-0.5s-0.3-0.4-0.4-0.7S73,12.3,73,12V7.7h1.6v3.6c0,0.2,0,0.4,0.1,0.6s0.1,0.3,0.2,0.4s0.2,0.2,0.3,0.2
			s0.3,0.1,0.4,0.1c0.2,0,0.3,0,0.5-0.1s0.3-0.1,0.4-0.3s0.2-0.3,0.2-0.4s0.1-0.4,0.1-0.6V7.7h1.6V14z"/>
		<path d="M81.4,16h-1.6V7.7h1.6v0.5c0.2-0.2,0.4-0.3,0.7-0.5s0.6-0.2,0.9-0.2c0.4,0,0.8,0.1,1.1,0.2s0.6,0.4,0.9,0.7s0.4,0.6,0.6,1
			s0.2,0.8,0.2,1.3s-0.1,0.9-0.2,1.3s-0.3,0.7-0.6,1s-0.5,0.5-0.9,0.7s-0.7,0.2-1.1,0.2c-0.2,0-0.4,0-0.5,0s-0.3-0.1-0.4-0.1
			s-0.2-0.1-0.3-0.2s-0.2-0.2-0.3-0.3V16z M81.4,11.4c0,0.2,0,0.3,0.1,0.5s0.1,0.3,0.3,0.4s0.2,0.2,0.4,0.2s0.3,0.1,0.5,0.1
			c0.2,0,0.4,0,0.6-0.1s0.3-0.2,0.4-0.4s0.2-0.3,0.3-0.5s0.1-0.4,0.1-0.7v-0.1c0-0.2,0-0.5-0.1-0.7s-0.2-0.4-0.3-0.5
			s-0.3-0.3-0.4-0.4s-0.4-0.1-0.6-0.1c-0.2,0-0.4,0-0.5,0.1s-0.3,0.1-0.4,0.2s-0.2,0.2-0.3,0.4s-0.1,0.3-0.1,0.5V11.4z"/>
		<path d="M86.9,5.6h1.6v6.7c0,0.1,0,0.2,0.1,0.3s0.2,0.1,0.4,0.1c0.1,0,0.1,0,0.2,0s0.1,0,0.2,0l0.1,1.4c-0.1,0-0.2,0-0.4,0
			c-0.1,0-0.2,0-0.4,0s-0.3,0-0.4,0c-0.2,0-0.4,0-0.6-0.1s-0.3-0.1-0.5-0.3s-0.2-0.3-0.3-0.4s-0.1-0.4-0.1-0.6V5.6z"/>
		<path d="M93.2,7.6c0.5,0,0.9,0.1,1.3,0.2s0.7,0.4,1,0.7s0.5,0.6,0.6,1s0.2,0.8,0.2,1.3c0,0.5-0.1,0.9-0.2,1.3s-0.4,0.7-0.6,1
			s-0.6,0.5-1,0.7s-0.8,0.2-1.3,0.2c-0.5,0-0.9-0.1-1.3-0.2s-0.7-0.4-1-0.7s-0.5-0.6-0.6-1s-0.2-0.8-0.2-1.3c0-0.5,0.1-0.9,0.2-1.3
			s0.4-0.7,0.6-1s0.6-0.5,1-0.7S92.8,7.6,93.2,7.6z M93.2,12.6c0.2,0,0.4,0,0.6-0.1s0.3-0.2,0.4-0.4s0.2-0.3,0.3-0.5
			s0.1-0.4,0.1-0.7v0c0-0.3,0-0.5-0.1-0.7s-0.2-0.4-0.3-0.6S94,9.3,93.9,9.2s-0.4-0.1-0.6-0.1s-0.4,0-0.6,0.1s-0.3,0.2-0.4,0.4
			s-0.2,0.3-0.3,0.6s-0.1,0.4-0.1,0.7v0c0,0.3,0,0.5,0.1,0.7s0.2,0.4,0.3,0.5s0.3,0.3,0.4,0.4S93,12.6,93.2,12.6z"/>
		<path d="M100.9,13.4c-0.1,0.1-0.1,0.2-0.2,0.2s-0.2,0.2-0.3,0.2s-0.3,0.1-0.5,0.2s-0.4,0.1-0.6,0.1c-0.3,0-0.6,0-0.9-0.1
			s-0.5-0.2-0.7-0.4s-0.4-0.4-0.5-0.6s-0.2-0.5-0.2-0.8c0-0.5,0.2-0.9,0.5-1.2s0.7-0.5,1.3-0.6l1.8-0.3V9.9c0-0.3-0.1-0.5-0.3-0.7
			S100,9,99.6,9c-0.2,0-0.3,0-0.5,0.1s-0.3,0.1-0.5,0.1s-0.3,0.1-0.4,0.2S98,9.5,97.9,9.5l-0.6-1.2c0.4-0.2,0.8-0.4,1.2-0.5
			s0.9-0.2,1.4-0.2c0.3,0,0.6,0,0.9,0.1s0.6,0.2,0.8,0.3s0.4,0.4,0.6,0.7s0.2,0.6,0.2,1.1v2.6c0,0.2,0,0.3,0.1,0.4s0.2,0.2,0.4,0.2
			l-0.7,1.2c-0.3,0-0.5-0.1-0.7-0.2S101.1,13.6,100.9,13.4z M99.5,11.5c-0.2,0-0.4,0.1-0.5,0.2c-0.1,0.1-0.2,0.3-0.2,0.4
			c0,0.2,0.1,0.4,0.2,0.5c0.1,0.1,0.4,0.2,0.7,0.2c0.3,0,0.5-0.1,0.7-0.3s0.3-0.4,0.3-0.7v-0.6L99.5,11.5z"/>
		<path d="M107.7,14v-0.5c-0.1,0.1-0.2,0.2-0.3,0.3s-0.2,0.1-0.3,0.2s-0.3,0.1-0.4,0.1s-0.3,0-0.5,0c-0.4,0-0.8-0.1-1.1-0.2
			s-0.6-0.4-0.9-0.7s-0.4-0.6-0.6-1s-0.2-0.8-0.2-1.3s0.1-0.9,0.2-1.3s0.3-0.7,0.6-1s0.5-0.5,0.9-0.7s0.7-0.2,1.1-0.2
			c0.4,0,0.7,0.1,0.9,0.2s0.5,0.3,0.6,0.5V5.6h1.6V14H107.7z M107.8,10.3c0-0.2,0-0.3-0.1-0.5c-0.1-0.1-0.1-0.3-0.3-0.4
			c-0.1-0.1-0.2-0.2-0.4-0.2c-0.2-0.1-0.3-0.1-0.5-0.1c-0.2,0-0.4,0-0.6,0.1c-0.2,0.1-0.3,0.2-0.4,0.4c-0.1,0.2-0.2,0.3-0.3,0.5
			s-0.1,0.4-0.1,0.7v0.1c0,0.2,0,0.5,0.1,0.7s0.2,0.4,0.3,0.5c0.1,0.2,0.3,0.3,0.4,0.4c0.2,0.1,0.4,0.1,0.6,0.1c0.2,0,0.4,0,0.5-0.1
			c0.2-0.1,0.3-0.1,0.4-0.2c0.1-0.1,0.2-0.2,0.3-0.4c0.1-0.1,0.1-0.3,0.1-0.5V10.3z"/>
		<path d="M112.1,11.4c0,0.2,0.1,0.4,0.2,0.5c0.1,0.2,0.2,0.3,0.3,0.4c0.1,0.1,0.3,0.2,0.5,0.3c0.2,0.1,0.4,0.1,0.6,0.1
			c0.2,0,0.5,0,0.8-0.1s0.5-0.2,0.8-0.4l0.8,1.1c-0.3,0.2-0.7,0.4-1.1,0.6c-0.4,0.2-0.9,0.2-1.4,0.2c-0.4,0-0.8-0.1-1.2-0.2
			c-0.4-0.1-0.7-0.4-1-0.6c-0.3-0.3-0.5-0.6-0.7-1c-0.2-0.4-0.2-0.9-0.2-1.4c0-0.5,0.1-0.9,0.2-1.3c0.1-0.4,0.4-0.7,0.6-1
			c0.3-0.3,0.6-0.5,0.9-0.7c0.4-0.2,0.8-0.2,1.2-0.2c0.4,0,0.8,0.1,1.2,0.2s0.7,0.4,0.9,0.6c0.3,0.3,0.5,0.6,0.6,1
			c0.1,0.4,0.2,0.8,0.2,1.3v0.7H112.1z M113.4,9c-0.3,0-0.6,0.1-0.9,0.3s-0.4,0.5-0.4,0.8h2.5c0-0.3-0.1-0.6-0.4-0.8
			S113.8,9,113.4,9z"/>
		<path d="M121.5,14v-0.5c-0.1,0.1-0.2,0.2-0.3,0.3s-0.2,0.1-0.3,0.2s-0.3,0.1-0.4,0.1s-0.3,0-0.5,0c-0.4,0-0.8-0.1-1.1-0.2
			s-0.6-0.4-0.9-0.7s-0.4-0.6-0.6-1s-0.2-0.8-0.2-1.3s0.1-0.9,0.2-1.3s0.3-0.7,0.6-1s0.5-0.5,0.9-0.7s0.7-0.2,1.1-0.2
			c0.4,0,0.7,0.1,0.9,0.2s0.5,0.3,0.6,0.5V5.6h1.6V14H121.5z M121.5,10.3c0-0.2,0-0.3-0.1-0.5s-0.1-0.3-0.3-0.4
			c-0.1-0.1-0.2-0.2-0.4-0.2s-0.3-0.1-0.5-0.1c-0.2,0-0.4,0-0.6,0.1s-0.3,0.2-0.4,0.4s-0.2,0.3-0.3,0.5s-0.1,0.4-0.1,0.7v0.1
			c0,0.2,0,0.5,0.1,0.7s0.2,0.4,0.3,0.5s0.3,0.3,0.4,0.4s0.4,0.1,0.6,0.1c0.2,0,0.4,0,0.5-0.1s0.3-0.1,0.4-0.2
			c0.1-0.1,0.2-0.2,0.3-0.4s0.1-0.3,0.1-0.5V10.3z"/>
	</g>
	<g class="st2">
		<path d="M21.5,22.6l2.1,4h0l2.1-4h1.1l-2.7,5V31h-1v-3.4l-2.7-5H21.5z"/>
		<path d="M27.7,28.3c0,0.3,0.1,0.5,0.2,0.8s0.2,0.4,0.4,0.6s0.4,0.3,0.6,0.4s0.5,0.1,0.7,0.1c0.3,0,0.6-0.1,0.9-0.2
			s0.5-0.3,0.7-0.4l0.5,0.7c-0.3,0.2-0.6,0.4-0.9,0.5s-0.7,0.2-1.2,0.2c-0.4,0-0.8-0.1-1.2-0.2s-0.7-0.4-0.9-0.6s-0.4-0.6-0.6-1
			s-0.2-0.8-0.2-1.2c0-0.5,0.1-0.9,0.2-1.3s0.3-0.7,0.6-1s0.5-0.5,0.9-0.6s0.7-0.2,1.1-0.2c0.4,0,0.8,0.1,1.1,0.2s0.6,0.4,0.8,0.6
			s0.4,0.6,0.5,1s0.2,0.8,0.2,1.2v0.3H27.7z M29.3,25.8c-0.2,0-0.5,0-0.7,0.1s-0.4,0.2-0.5,0.4s-0.2,0.4-0.3,0.6s-0.1,0.4-0.1,0.7
			h3.2c0-0.2,0-0.5-0.1-0.7s-0.2-0.4-0.3-0.6s-0.3-0.3-0.5-0.4S29.5,25.8,29.3,25.8z"/>
		<path d="M37.3,29.3c0,0.3-0.1,0.5-0.2,0.8s-0.3,0.4-0.5,0.6S36.2,30.9,36,31s-0.5,0.1-0.8,0.1c-0.4,0-0.9-0.1-1.3-0.2
			s-0.8-0.4-1.1-0.6l0.5-0.7c0.1,0.1,0.2,0.2,0.3,0.3s0.3,0.2,0.4,0.2s0.3,0.1,0.5,0.2s0.4,0.1,0.6,0.1c0.2,0,0.3,0,0.5-0.1
			s0.3-0.1,0.4-0.2s0.2-0.2,0.3-0.3s0.1-0.2,0.1-0.4c0-0.2,0-0.3-0.1-0.4s-0.2-0.2-0.3-0.3s-0.3-0.1-0.4-0.2s-0.3-0.1-0.5-0.2
			l-0.4-0.1c-0.2-0.1-0.4-0.2-0.6-0.2s-0.4-0.2-0.5-0.3s-0.3-0.3-0.4-0.5s-0.1-0.4-0.1-0.6c0-0.2,0-0.4,0.1-0.6s0.2-0.4,0.4-0.5
			s0.4-0.3,0.7-0.4s0.6-0.1,1-0.1c0.4,0,0.8,0.1,1.1,0.2s0.6,0.3,0.9,0.5l-0.5,0.7c-0.1-0.1-0.2-0.2-0.3-0.2s-0.2-0.1-0.4-0.2
			s-0.3-0.1-0.4-0.1s-0.3-0.1-0.4-0.1c-0.2,0-0.4,0-0.5,0.1s-0.3,0.1-0.4,0.2s-0.2,0.2-0.2,0.3s-0.1,0.2-0.1,0.3
			c0,0.1,0,0.3,0.1,0.3s0.1,0.2,0.2,0.2s0.2,0.1,0.3,0.2s0.3,0.1,0.4,0.1l0.5,0.2c0.2,0.1,0.4,0.2,0.6,0.2s0.4,0.2,0.5,0.3
			c0.2,0.1,0.3,0.3,0.4,0.5S37.3,29.1,37.3,29.3z"/>
	</g>
	<g class="st2">
		<path class="st3" d="M20.7,41c0.3,0,0.5,0,0.7-0.1s0.3-0.1,0.4-0.2s0.2-0.2,0.2-0.4s0-0.3,0-0.6v-0.1h1V48h-1v-6.2h-1.6V41H20.7z"
			/>
		<path class="st3" d="M31.2,43.6c0,0.4,0,0.8-0.1,1.1s-0.1,0.7-0.2,1.1s-0.3,0.7-0.4,0.9s-0.4,0.5-0.6,0.8s-0.5,0.4-0.9,0.5
			s-0.7,0.2-1.1,0.2c-0.3,0-0.6,0-0.8-0.1s-0.5-0.2-0.7-0.3s-0.4-0.3-0.6-0.4s-0.3-0.3-0.4-0.5l1-0.3c0.2,0.3,0.4,0.5,0.7,0.6
			s0.5,0.2,0.8,0.2c0.3,0,0.5,0,0.7-0.1s0.4-0.2,0.6-0.4s0.3-0.3,0.4-0.5s0.2-0.4,0.3-0.7s0.1-0.5,0.2-0.8s0.1-0.6,0.1-0.8h0
			c-0.1,0.1-0.2,0.3-0.3,0.4s-0.3,0.3-0.5,0.4s-0.4,0.2-0.7,0.3s-0.5,0.1-0.8,0.1c-0.4,0-0.8-0.1-1.1-0.2s-0.6-0.3-0.9-0.6
			s-0.4-0.5-0.6-0.9s-0.2-0.7-0.2-1.1c0-0.4,0.1-0.8,0.2-1.1s0.3-0.7,0.6-0.9s0.6-0.5,0.9-0.6s0.7-0.2,1.2-0.2
			c0.4,0,0.9,0.1,1.2,0.3s0.7,0.4,1,0.7s0.5,0.7,0.7,1.2s0.2,1,0.2,1.7V43.6z M30,42.3c0-0.3,0-0.6-0.1-0.8s-0.2-0.5-0.4-0.6
			s-0.4-0.3-0.6-0.4s-0.5-0.1-0.8-0.1c-0.3,0-0.5,0-0.8,0.1s-0.4,0.2-0.6,0.4s-0.3,0.4-0.4,0.6s-0.1,0.5-0.1,0.8
			c0,0.3,0,0.6,0.1,0.8s0.2,0.4,0.4,0.6s0.4,0.3,0.6,0.4s0.5,0.1,0.8,0.1c0.3,0,0.5,0,0.8-0.1s0.4-0.2,0.6-0.4s0.3-0.4,0.4-0.6
			S30,42.6,30,42.3z"/>
		<path class="st3" d="M34.4,47c0.1,0,0.3,0.1,0.4,0.1c0.1,0,0.2,0.1,0.4,0.1s0.2,0,0.3,0c0.3,0,0.5,0,0.7-0.1s0.3-0.2,0.4-0.3
			s0.1-0.3,0.2-0.5s0-0.4,0-0.7v-6h1v6.7c0,0.3-0.1,0.6-0.2,0.9s-0.3,0.4-0.5,0.6S36.7,48,36.5,48s-0.5,0.1-0.8,0.1
			c-0.3,0-0.5,0-0.8-0.1s-0.5-0.1-0.7-0.2L34.4,47z"/>
		<path class="st3" d="M43.2,47.4c-0.2,0.2-0.4,0.4-0.7,0.5s-0.6,0.2-1.1,0.2c-0.3,0-0.6,0-0.8-0.1s-0.5-0.2-0.7-0.4
			s-0.3-0.3-0.4-0.6s-0.2-0.5-0.2-0.8c0-0.2,0-0.4,0.1-0.6s0.2-0.4,0.3-0.5s0.3-0.3,0.5-0.4s0.4-0.2,0.7-0.2l2.1-0.3v-0.4
			c0-0.2,0-0.4-0.1-0.6s-0.2-0.3-0.3-0.4s-0.3-0.2-0.4-0.2s-0.3-0.1-0.5-0.1c-0.3,0-0.6,0-0.9,0.1s-0.6,0.2-0.8,0.3l-0.4-0.8
			c0.3-0.2,0.7-0.3,1.1-0.4s0.7-0.1,1.1-0.1c0.7,0,1.3,0.2,1.7,0.5s0.6,0.8,0.6,1.4v2.8c0,0.2,0,0.4,0.1,0.5s0.2,0.2,0.4,0.3
			L44,48.1c-0.2,0-0.3-0.1-0.5-0.2S43.3,47.6,43.2,47.4L43.2,47.4z M41.5,45.3c-0.2,0-0.3,0.1-0.4,0.1s-0.2,0.1-0.3,0.2
			s-0.2,0.2-0.2,0.3s-0.1,0.2-0.1,0.4c0,0.2,0,0.3,0.1,0.5s0.2,0.3,0.3,0.3s0.2,0.2,0.4,0.2s0.3,0.1,0.5,0.1c0.2,0,0.4,0,0.5-0.1
			s0.3-0.1,0.5-0.2s0.2-0.2,0.3-0.3s0.1-0.3,0.1-0.5v-1.2L41.5,45.3z"/>
		<path class="st3" d="M45.9,42h1v0.7c0.2-0.3,0.5-0.5,0.8-0.6s0.6-0.2,1-0.2c0.3,0,0.6,0.1,0.9,0.2s0.5,0.3,0.6,0.4
			s0.3,0.4,0.4,0.7s0.1,0.5,0.1,0.8V48h-1v-3.8c0-0.3,0-0.5-0.1-0.7s-0.2-0.3-0.3-0.5s-0.2-0.2-0.4-0.3s-0.3-0.1-0.5-0.1
			c-0.2,0-0.4,0-0.6,0.1s-0.3,0.2-0.5,0.3s-0.3,0.3-0.4,0.5s-0.1,0.5-0.1,0.7V48h-1V42z"/>
		<path class="st3" d="M57.1,48h-1v-0.7c-0.2,0.3-0.5,0.5-0.8,0.6s-0.6,0.2-1,0.2c-0.3,0-0.6-0.1-0.9-0.2s-0.5-0.3-0.6-0.4
			s-0.3-0.4-0.4-0.7s-0.1-0.5-0.1-0.8V42h1v3.8c0,0.3,0,0.5,0.1,0.7s0.2,0.3,0.3,0.4s0.2,0.2,0.4,0.3s0.3,0.1,0.5,0.1
			c0.2,0,0.4,0,0.6-0.1s0.3-0.2,0.5-0.3s0.3-0.3,0.3-0.5s0.1-0.5,0.1-0.7V42h1V48z"/>
		<path class="st3" d="M62.4,47.4c-0.2,0.2-0.4,0.4-0.7,0.5s-0.6,0.2-1.1,0.2c-0.3,0-0.6,0-0.8-0.1s-0.5-0.2-0.7-0.4
			s-0.3-0.3-0.4-0.6s-0.2-0.5-0.2-0.8c0-0.2,0-0.4,0.1-0.6s0.2-0.4,0.3-0.5s0.3-0.3,0.5-0.4s0.4-0.2,0.7-0.2l2.1-0.3v-0.4
			c0-0.2,0-0.4-0.1-0.6S62,43.1,61.9,43s-0.3-0.2-0.4-0.2s-0.3-0.1-0.5-0.1c-0.3,0-0.6,0-0.9,0.1s-0.6,0.2-0.8,0.3l-0.4-0.8
			c0.3-0.2,0.7-0.3,1.1-0.4s0.7-0.1,1.1-0.1c0.7,0,1.3,0.2,1.7,0.5s0.6,0.8,0.6,1.4v2.8c0,0.2,0,0.4,0.1,0.5s0.2,0.2,0.4,0.3
			l-0.6,0.7c-0.2,0-0.3-0.1-0.5-0.2S62.5,47.6,62.4,47.4L62.4,47.4z M60.6,45.3c-0.2,0-0.3,0.1-0.4,0.1s-0.2,0.1-0.3,0.2
			s-0.2,0.2-0.2,0.3s-0.1,0.2-0.1,0.4c0,0.2,0,0.3,0.1,0.5s0.2,0.3,0.3,0.3s0.2,0.2,0.4,0.2s0.3,0.1,0.5,0.1c0.2,0,0.4,0,0.5-0.1
			s0.3-0.1,0.5-0.2s0.2-0.2,0.3-0.3s0.1-0.3,0.1-0.5v-1.2L60.6,45.3z"/>
		<path class="st3" d="M68.1,42.9H68c-0.3,0-0.5,0-0.7,0.1s-0.4,0.2-0.6,0.3s-0.3,0.4-0.4,0.6s-0.2,0.6-0.2,1V48h-1v-6h1V43
			c0.1-0.2,0.2-0.3,0.3-0.5s0.3-0.2,0.4-0.3s0.3-0.2,0.5-0.2s0.4-0.1,0.6-0.1h0.3V42.9z"/>
		<path class="st3" d="M68.7,42h1.1l1.5,4.9l1.4-4.9h1.1l-2.2,6.9c-0.1,0.2-0.2,0.4-0.3,0.5s-0.2,0.2-0.4,0.3s-0.3,0.1-0.4,0.2
			s-0.3,0-0.5,0c-0.2,0-0.3,0-0.5,0s-0.4,0-0.6-0.1l0.1-0.9c0.1,0,0.2,0,0.3,0c0.1,0,0.2,0,0.3,0s0.2,0,0.3,0c0.2,0,0.4,0,0.5-0.1
			s0.2-0.2,0.3-0.5l0.1-0.3L68.7,42z"/>
		<path class="st3" d="M78.5,47.1h4.2V48h-5.6v-1c0.5-0.4,1-0.7,1.4-1s0.8-0.6,1.1-0.9s0.6-0.5,0.8-0.8s0.4-0.5,0.6-0.7
			s0.3-0.5,0.3-0.7s0.1-0.5,0.1-0.8c0-0.2,0-0.5-0.1-0.7s-0.2-0.4-0.3-0.6s-0.3-0.3-0.6-0.4s-0.5-0.1-0.8-0.1c-0.2,0-0.4,0-0.7,0.1
			s-0.4,0.2-0.6,0.3s-0.3,0.3-0.4,0.5S78,41.8,78,42.1L77,42c0-0.4,0.1-0.7,0.2-1.1s0.3-0.6,0.6-0.8s0.5-0.4,0.9-0.5
			s0.7-0.2,1.1-0.2c0.4,0,0.8,0.1,1.1,0.2s0.6,0.3,0.9,0.5s0.4,0.5,0.6,0.8s0.2,0.7,0.2,1c0,0.4-0.1,0.9-0.2,1.3s-0.4,0.8-0.7,1.2
			s-0.7,0.8-1.2,1.2s-1.1,0.8-1.7,1.2L78.5,47.1L78.5,47.1z"/>
		<path class="st3" d="M87.2,39.5c0.4,0,0.7,0.1,1,0.2s0.5,0.3,0.8,0.5s0.4,0.4,0.6,0.7s0.3,0.6,0.4,0.9s0.2,0.7,0.2,1
			s0.1,0.7,0.1,1.1s0,0.7-0.1,1.1s-0.1,0.7-0.2,1s-0.2,0.6-0.4,0.9s-0.3,0.5-0.6,0.7s-0.5,0.4-0.8,0.5s-0.6,0.2-1,0.2
			s-0.7-0.1-1-0.2s-0.5-0.3-0.8-0.5s-0.4-0.4-0.6-0.7s-0.3-0.6-0.4-0.9s-0.2-0.7-0.2-1s-0.1-0.7-0.1-1.1s0-0.7,0.1-1.1
			s0.1-0.7,0.2-1s0.2-0.6,0.4-0.9s0.3-0.5,0.6-0.7s0.5-0.4,0.8-0.5S86.9,39.5,87.2,39.5z M87.2,47.2c0.3,0,0.5-0.1,0.8-0.2
			s0.4-0.4,0.6-0.6s0.3-0.6,0.4-1s0.1-0.8,0.1-1.4v-0.4c0-0.5,0-1-0.1-1.3s-0.2-0.7-0.4-1s-0.4-0.5-0.6-0.6s-0.5-0.2-0.8-0.2
			c-0.3,0-0.5,0.1-0.8,0.2S86,41,85.9,41.2s-0.3,0.6-0.4,1s-0.1,0.8-0.1,1.3V44c0,0.5,0,1,0.1,1.4s0.2,0.7,0.4,1s0.4,0.5,0.6,0.6
			S86.9,47.2,87.2,47.2z"/>
		<path class="st3" d="M93.2,47.1h4.2V48h-5.6v-1c0.5-0.4,1-0.7,1.4-1s0.8-0.6,1.1-0.9s0.6-0.5,0.8-0.8s0.4-0.5,0.6-0.7
			s0.3-0.5,0.3-0.7s0.1-0.5,0.1-0.8c0-0.2,0-0.5-0.1-0.7s-0.2-0.4-0.3-0.6s-0.3-0.3-0.6-0.4s-0.5-0.1-0.8-0.1c-0.2,0-0.4,0-0.7,0.1
			s-0.4,0.2-0.6,0.3s-0.3,0.3-0.4,0.5s-0.2,0.5-0.2,0.8l-1-0.1c0-0.4,0.1-0.7,0.2-1.1s0.3-0.6,0.6-0.8s0.5-0.4,0.9-0.5
			s0.7-0.2,1.1-0.2c0.4,0,0.8,0.1,1.1,0.2s0.6,0.3,0.9,0.5s0.4,0.5,0.6,0.8s0.2,0.7,0.2,1c0,0.4-0.1,0.9-0.2,1.3s-0.4,0.8-0.7,1.2
			s-0.7,0.8-1.2,1.2s-1.1,0.8-1.7,1.2L93.2,47.1L93.2,47.1z"/>
		<path class="st3" d="M99,41c0.3,0,0.5,0,0.7-0.1s0.3-0.1,0.4-0.2s0.2-0.2,0.2-0.4s0-0.3,0-0.6v-0.1h1V48h-1v-6.2h-1.6V41H99z"/>
	</g>
	<g class="st2">
		<path d="M20.9,83.6h3.4c0.4,0,0.8,0.1,1.2,0.2s0.6,0.3,0.9,0.6s0.4,0.5,0.6,0.9s0.2,0.7,0.2,1.1s-0.1,0.8-0.2,1.1
			s-0.3,0.6-0.6,0.9s-0.6,0.4-0.9,0.6s-0.8,0.2-1.2,0.2h-1.5V92h-1.7V83.6z M25.3,86.4c0-0.2,0-0.4-0.1-0.5s-0.2-0.3-0.3-0.4
			s-0.3-0.2-0.5-0.2s-0.4-0.1-0.6-0.1h-1.2v2.6h1.2c0.2,0,0.4,0,0.6-0.1s0.3-0.1,0.5-0.2s0.2-0.2,0.3-0.4S25.3,86.6,25.3,86.4
			L25.3,86.4z"/>
		<path d="M31.5,87.3h-0.2c-0.2,0-0.5,0-0.7,0.1s-0.4,0.1-0.6,0.3s-0.3,0.3-0.4,0.5s-0.1,0.5-0.1,0.8v3H28v-6.3h1.6v0.7
			c0.1-0.1,0.2-0.2,0.3-0.3s0.2-0.2,0.4-0.3s0.3-0.1,0.5-0.2s0.4-0.1,0.6-0.1h0.2V87.3z"/>
		<path d="M35.3,85.6c0.5,0,0.9,0.1,1.3,0.2s0.7,0.4,1,0.7s0.5,0.6,0.6,1s0.2,0.8,0.2,1.3c0,0.5-0.1,0.9-0.2,1.3s-0.4,0.7-0.6,1
			s-0.6,0.5-1,0.7s-0.8,0.2-1.3,0.2c-0.5,0-0.9-0.1-1.3-0.2s-0.7-0.4-1-0.7s-0.5-0.6-0.6-1s-0.2-0.8-0.2-1.3c0-0.5,0.1-0.9,0.2-1.3
			s0.4-0.7,0.6-1s0.6-0.5,1-0.7S34.9,85.6,35.3,85.6z M35.3,90.6c0.2,0,0.4,0,0.6-0.1s0.3-0.2,0.4-0.4s0.2-0.3,0.3-0.5
			s0.1-0.4,0.1-0.7v0c0-0.3,0-0.5-0.1-0.7s-0.2-0.4-0.3-0.6s-0.3-0.3-0.4-0.4s-0.4-0.1-0.6-0.1s-0.4,0-0.6,0.1s-0.3,0.2-0.4,0.4
			s-0.2,0.3-0.3,0.6s-0.1,0.4-0.1,0.7v0c0,0.3,0,0.5,0.1,0.7s0.2,0.4,0.3,0.5s0.3,0.3,0.4,0.4S35.1,90.6,35.3,90.6z"/>
		<path d="M40.9,92L39,85.7h1.8l1.1,4.3l1.2-4.3h1.8L42.9,92H40.9z"/>
		<path d="M47,89.4c0,0.2,0.1,0.4,0.2,0.5c0.1,0.2,0.2,0.3,0.3,0.4c0.1,0.1,0.3,0.2,0.5,0.3c0.2,0.1,0.4,0.1,0.6,0.1
			c0.2,0,0.5,0,0.8-0.1s0.5-0.2,0.8-0.4l0.8,1.1c-0.3,0.2-0.7,0.4-1.1,0.6s-0.9,0.2-1.4,0.2c-0.4,0-0.8-0.1-1.2-0.2s-0.7-0.4-1-0.6
			s-0.5-0.6-0.7-1c-0.2-0.4-0.2-0.9-0.2-1.4c0-0.5,0.1-0.9,0.2-1.3c0.1-0.4,0.4-0.7,0.6-1c0.3-0.3,0.6-0.5,0.9-0.7
			c0.4-0.2,0.8-0.2,1.2-0.2c0.4,0,0.8,0.1,1.2,0.2c0.4,0.2,0.7,0.4,0.9,0.6c0.3,0.3,0.5,0.6,0.6,1c0.1,0.4,0.2,0.8,0.2,1.3v0.7H47z
			 M48.3,87c-0.3,0-0.6,0.1-0.9,0.3s-0.4,0.5-0.4,0.8h2.5c0-0.3-0.1-0.6-0.4-0.8S48.7,87,48.3,87z"/>
		<path d="M56.4,92v-0.5c-0.1,0.1-0.2,0.2-0.3,0.3s-0.2,0.1-0.3,0.2s-0.3,0.1-0.4,0.1s-0.3,0-0.5,0c-0.4,0-0.8-0.1-1.1-0.2
			s-0.6-0.4-0.9-0.7s-0.4-0.6-0.6-1S52,89.3,52,88.9s0.1-0.9,0.2-1.3s0.3-0.7,0.6-1s0.5-0.5,0.9-0.7s0.7-0.2,1.1-0.2
			c0.4,0,0.7,0.1,0.9,0.2s0.5,0.3,0.6,0.5v-2.7H58V92H56.4z M56.4,88.3c0-0.2,0-0.3-0.1-0.5c-0.1-0.1-0.1-0.3-0.3-0.4
			c-0.1-0.1-0.2-0.2-0.4-0.2s-0.3-0.1-0.5-0.1c-0.2,0-0.4,0-0.6,0.1c-0.2,0.1-0.3,0.2-0.4,0.4c-0.1,0.2-0.2,0.3-0.3,0.5
			c-0.1,0.2-0.1,0.4-0.1,0.7v0.1c0,0.2,0,0.5,0.1,0.7c0.1,0.2,0.2,0.4,0.3,0.5c0.1,0.2,0.3,0.3,0.4,0.4c0.2,0.1,0.4,0.1,0.6,0.1
			c0.2,0,0.4,0,0.5-0.1s0.3-0.1,0.4-0.2c0.1-0.1,0.2-0.2,0.3-0.4c0.1-0.1,0.1-0.3,0.1-0.5V88.3z"/>
		<path d="M61.8,83.6h1.7V92h-1.7V83.6z"/>
		<path d="M72.5,87.8c0,0.6-0.1,1.2-0.3,1.7s-0.4,1-0.8,1.3s-0.8,0.7-1.3,0.9S69.1,92,68.4,92h-3.1v-8.4h3.1c0.7,0,1.3,0.1,1.8,0.3
			s0.9,0.5,1.3,0.9s0.6,0.8,0.8,1.3S72.5,87.2,72.5,87.8z M70.7,87.6c0-0.4,0-0.7-0.1-1s-0.2-0.6-0.4-0.8s-0.4-0.4-0.8-0.5
			s-0.7-0.2-1.1-0.2H67v5.4h1.3c0.4,0,0.8-0.1,1.1-0.2s0.6-0.3,0.8-0.5s0.3-0.5,0.4-0.8s0.1-0.6,0.1-1V87.6z"/>
	</g>
	<g class="st2">
		<path d="M21.5,100.6l2.1,4h0l2.1-4h1.1l-2.7,5v3.4h-1v-3.4l-2.7-5H21.5z"/>
		<path d="M27.7,106.3c0,0.3,0.1,0.5,0.2,0.8s0.2,0.4,0.4,0.6s0.4,0.3,0.6,0.4s0.5,0.1,0.7,0.1c0.3,0,0.6-0.1,0.9-0.2
			s0.5-0.3,0.7-0.4l0.5,0.7c-0.3,0.2-0.6,0.4-0.9,0.5s-0.7,0.2-1.2,0.2c-0.4,0-0.8-0.1-1.2-0.2s-0.7-0.4-0.9-0.6s-0.4-0.6-0.6-1
			s-0.2-0.8-0.2-1.2c0-0.5,0.1-0.9,0.2-1.3s0.3-0.7,0.6-1s0.5-0.5,0.9-0.6s0.7-0.2,1.1-0.2c0.4,0,0.8,0.1,1.1,0.2s0.6,0.4,0.8,0.6
			s0.4,0.6,0.5,1s0.2,0.8,0.2,1.2v0.3H27.7z M29.3,103.8c-0.2,0-0.5,0-0.7,0.1s-0.4,0.2-0.5,0.4s-0.2,0.4-0.3,0.6s-0.1,0.4-0.1,0.7
			h3.2c0-0.2,0-0.5-0.1-0.7s-0.2-0.4-0.3-0.6s-0.3-0.3-0.5-0.4S29.5,103.8,29.3,103.8z"/>
		<path d="M37.3,107.3c0,0.3-0.1,0.5-0.2,0.8s-0.3,0.4-0.5,0.6s-0.4,0.3-0.7,0.3s-0.5,0.1-0.8,0.1c-0.4,0-0.9-0.1-1.3-0.2
			s-0.8-0.4-1.1-0.6l0.5-0.7c0.1,0.1,0.2,0.2,0.3,0.3s0.3,0.2,0.4,0.2s0.3,0.1,0.5,0.2s0.4,0.1,0.6,0.1c0.2,0,0.3,0,0.5-0.1
			s0.3-0.1,0.4-0.2s0.2-0.2,0.3-0.3s0.1-0.2,0.1-0.4c0-0.2,0-0.3-0.1-0.4s-0.2-0.2-0.3-0.3s-0.3-0.1-0.4-0.2s-0.3-0.1-0.5-0.2
			l-0.4-0.1c-0.2-0.1-0.4-0.2-0.6-0.2s-0.4-0.2-0.5-0.3s-0.3-0.3-0.4-0.5s-0.1-0.4-0.1-0.6c0-0.2,0-0.4,0.1-0.6s0.2-0.4,0.4-0.5
			s0.4-0.3,0.7-0.4s0.6-0.1,1-0.1c0.4,0,0.8,0.1,1.1,0.2s0.6,0.3,0.9,0.5l-0.5,0.7c-0.1-0.1-0.2-0.2-0.3-0.2s-0.2-0.1-0.4-0.2
			s-0.3-0.1-0.4-0.1s-0.3-0.1-0.4-0.1c-0.2,0-0.4,0-0.5,0.1s-0.3,0.1-0.4,0.2s-0.2,0.2-0.2,0.3s-0.1,0.2-0.1,0.3
			c0,0.1,0,0.3,0.1,0.3s0.1,0.2,0.2,0.2s0.2,0.1,0.3,0.2s0.3,0.1,0.4,0.1l0.5,0.2c0.2,0.1,0.4,0.2,0.6,0.2s0.4,0.2,0.5,0.3
			c0.2,0.1,0.3,0.3,0.4,0.5S37.3,107.1,37.3,107.3z"/>
	</g>
	<g class="st2">
		<path class="st3" d="M20.7,119c0.3,0,0.5,0,0.7-0.1s0.3-0.1,0.4-0.2s0.2-0.2,0.2-0.4s0-0.3,0-0.6v-0.1h1v8.4h-1v-6.2h-1.6V119
			H20.7z"/>
		<path class="st3" d="M31.2,121.6c0,0.4,0,0.8-0.1,1.1s-0.1,0.7-0.2,1.1s-0.3,0.7-0.4,0.9s-0.4,0.5-0.6,0.8s-0.5,0.4-0.9,0.5
			s-0.7,0.2-1.1,0.2c-0.3,0-0.6,0-0.8-0.1s-0.5-0.2-0.7-0.3s-0.4-0.3-0.6-0.4s-0.3-0.3-0.4-0.5l1-0.3c0.2,0.3,0.4,0.5,0.7,0.6
			s0.5,0.2,0.8,0.2c0.3,0,0.5,0,0.7-0.1s0.4-0.2,0.6-0.4s0.3-0.3,0.4-0.5s0.2-0.4,0.3-0.7s0.1-0.5,0.2-0.8s0.1-0.6,0.1-0.8h0
			c-0.1,0.1-0.2,0.3-0.3,0.4s-0.3,0.3-0.5,0.4s-0.4,0.2-0.7,0.3s-0.5,0.1-0.8,0.1c-0.4,0-0.8-0.1-1.1-0.2s-0.6-0.3-0.9-0.6
			s-0.4-0.5-0.6-0.9s-0.2-0.7-0.2-1.1c0-0.4,0.1-0.8,0.2-1.1s0.3-0.7,0.6-0.9s0.6-0.5,0.9-0.6s0.7-0.2,1.2-0.2
			c0.4,0,0.9,0.1,1.2,0.3s0.7,0.4,1,0.7s0.5,0.7,0.7,1.2s0.2,1,0.2,1.7V121.6z M30,120.3c0-0.3,0-0.6-0.1-0.8s-0.2-0.5-0.4-0.6
			s-0.4-0.3-0.6-0.4s-0.5-0.1-0.8-0.1c-0.3,0-0.5,0-0.8,0.1s-0.4,0.2-0.6,0.4s-0.3,0.4-0.4,0.6s-0.1,0.5-0.1,0.8
			c0,0.3,0,0.6,0.1,0.8s0.2,0.4,0.4,0.6s0.4,0.3,0.6,0.4s0.5,0.1,0.8,0.1c0.3,0,0.5,0,0.8-0.1s0.4-0.2,0.6-0.4s0.3-0.4,0.4-0.6
			S30,120.6,30,120.3z"/>
		<path class="st3" d="M34.4,125c0.1,0,0.3,0.1,0.4,0.1c0.1,0,0.2,0.1,0.4,0.1s0.2,0,0.3,0c0.3,0,0.5,0,0.7-0.1s0.3-0.2,0.4-0.3
			s0.1-0.3,0.2-0.5s0-0.4,0-0.7v-6h1v6.7c0,0.3-0.1,0.6-0.2,0.9s-0.3,0.4-0.5,0.6s-0.4,0.2-0.7,0.3s-0.5,0.1-0.8,0.1
			c-0.3,0-0.5,0-0.8-0.1s-0.5-0.1-0.7-0.2L34.4,125z"/>
		<path class="st3" d="M43.2,125.4c-0.2,0.2-0.4,0.4-0.7,0.5s-0.6,0.2-1.1,0.2c-0.3,0-0.6,0-0.8-0.1s-0.5-0.2-0.7-0.4
			s-0.3-0.3-0.4-0.6s-0.2-0.5-0.2-0.8c0-0.2,0-0.4,0.1-0.6s0.2-0.4,0.3-0.5s0.3-0.3,0.5-0.4s0.4-0.2,0.7-0.2l2.1-0.3v-0.4
			c0-0.2,0-0.4-0.1-0.6s-0.2-0.3-0.3-0.4s-0.3-0.2-0.4-0.2s-0.3-0.1-0.5-0.1c-0.3,0-0.6,0-0.9,0.1s-0.6,0.2-0.8,0.3l-0.4-0.8
			c0.3-0.2,0.7-0.3,1.1-0.4s0.7-0.1,1.1-0.1c0.7,0,1.3,0.2,1.7,0.5s0.6,0.8,0.6,1.4v2.8c0,0.2,0,0.4,0.1,0.5s0.2,0.2,0.4,0.3
			l-0.6,0.7c-0.2,0-0.3-0.1-0.5-0.2S43.3,125.6,43.2,125.4L43.2,125.4z M41.5,123.3c-0.2,0-0.3,0.1-0.4,0.1s-0.2,0.1-0.3,0.2
			s-0.2,0.2-0.2,0.3s-0.1,0.2-0.1,0.4c0,0.2,0,0.3,0.1,0.5s0.2,0.3,0.3,0.3s0.2,0.2,0.4,0.2s0.3,0.1,0.5,0.1c0.2,0,0.4,0,0.5-0.1
			s0.3-0.1,0.5-0.2s0.2-0.2,0.3-0.3s0.1-0.3,0.1-0.5v-1.2L41.5,123.3z"/>
		<path class="st3" d="M45.9,120h1v0.7c0.2-0.3,0.5-0.5,0.8-0.6s0.6-0.2,1-0.2c0.3,0,0.6,0.1,0.9,0.2s0.5,0.3,0.6,0.4
			s0.3,0.4,0.4,0.7s0.1,0.5,0.1,0.8v4.1h-1v-3.8c0-0.3,0-0.5-0.1-0.7s-0.2-0.3-0.3-0.5s-0.2-0.2-0.4-0.3s-0.3-0.1-0.5-0.1
			c-0.2,0-0.4,0-0.6,0.1s-0.3,0.2-0.5,0.3s-0.3,0.3-0.4,0.5s-0.1,0.5-0.1,0.7v3.6h-1V120z"/>
		<path class="st3" d="M57.1,126h-1v-0.7c-0.2,0.3-0.5,0.5-0.8,0.6s-0.6,0.2-1,0.2c-0.3,0-0.6-0.1-0.9-0.2s-0.5-0.3-0.6-0.4
			s-0.3-0.4-0.4-0.7s-0.1-0.5-0.1-0.8V120h1v3.8c0,0.3,0,0.5,0.1,0.7s0.2,0.3,0.3,0.4s0.2,0.2,0.4,0.3s0.3,0.1,0.5,0.1
			c0.2,0,0.4,0,0.6-0.1s0.3-0.2,0.5-0.3s0.3-0.3,0.3-0.5s0.1-0.5,0.1-0.7V120h1V126z"/>
		<path class="st3" d="M62.4,125.4c-0.2,0.2-0.4,0.4-0.7,0.5s-0.6,0.2-1.1,0.2c-0.3,0-0.6,0-0.8-0.1s-0.5-0.2-0.7-0.4
			s-0.3-0.3-0.4-0.6s-0.2-0.5-0.2-0.8c0-0.2,0-0.4,0.1-0.6s0.2-0.4,0.3-0.5s0.3-0.3,0.5-0.4s0.4-0.2,0.7-0.2l2.1-0.3v-0.4
			c0-0.2,0-0.4-0.1-0.6s-0.2-0.3-0.3-0.4s-0.3-0.2-0.4-0.2s-0.3-0.1-0.5-0.1c-0.3,0-0.6,0-0.9,0.1s-0.6,0.2-0.8,0.3l-0.4-0.8
			c0.3-0.2,0.7-0.3,1.1-0.4s0.7-0.1,1.1-0.1c0.7,0,1.3,0.2,1.7,0.5s0.6,0.8,0.6,1.4v2.8c0,0.2,0,0.4,0.1,0.5s0.2,0.2,0.4,0.3
			l-0.6,0.7c-0.2,0-0.3-0.1-0.5-0.2S62.5,125.6,62.4,125.4L62.4,125.4z M60.6,123.3c-0.2,0-0.3,0.1-0.4,0.1s-0.2,0.1-0.3,0.2
			s-0.2,0.2-0.2,0.3s-0.1,0.2-0.1,0.4c0,0.2,0,0.3,0.1,0.5s0.2,0.3,0.3,0.3s0.2,0.2,0.4,0.2s0.3,0.1,0.5,0.1c0.2,0,0.4,0,0.5-0.1
			s0.3-0.1,0.5-0.2s0.2-0.2,0.3-0.3s0.1-0.3,0.1-0.5v-1.2L60.6,123.3z"/>
		<path class="st3" d="M68.1,120.9H68c-0.3,0-0.5,0-0.7,0.1s-0.4,0.2-0.6,0.3s-0.3,0.4-0.4,0.6s-0.2,0.6-0.2,1v3.1h-1v-6h1v0.9
			c0.1-0.2,0.2-0.3,0.3-0.5s0.3-0.2,0.4-0.3s0.3-0.2,0.5-0.2s0.4-0.1,0.6-0.1h0.3V120.9z"/>
		<path class="st3" d="M68.7,120h1.1l1.5,4.9l1.4-4.9h1.1l-2.2,6.9c-0.1,0.2-0.2,0.4-0.3,0.5s-0.2,0.2-0.4,0.3s-0.3,0.1-0.4,0.2
			s-0.3,0-0.5,0c-0.2,0-0.3,0-0.5,0s-0.4,0-0.6-0.1l0.1-0.9c0.1,0,0.2,0,0.3,0c0.1,0,0.2,0,0.3,0s0.2,0,0.3,0c0.2,0,0.4,0,0.5-0.1
			s0.2-0.2,0.3-0.5l0.1-0.3L68.7,120z"/>
		<path class="st3" d="M78.5,125.1h4.2v0.9h-5.6v-1c0.5-0.4,1-0.7,1.4-1s0.8-0.6,1.1-0.9s0.6-0.5,0.8-0.8s0.4-0.5,0.6-0.7
			s0.3-0.5,0.3-0.7s0.1-0.5,0.1-0.8c0-0.2,0-0.5-0.1-0.7s-0.2-0.4-0.3-0.6s-0.3-0.3-0.6-0.4s-0.5-0.1-0.8-0.1c-0.2,0-0.4,0-0.7,0.1
			s-0.4,0.2-0.6,0.3s-0.3,0.3-0.4,0.5s-0.2,0.5-0.2,0.8l-1-0.1c0-0.4,0.1-0.7,0.2-1.1s0.3-0.6,0.6-0.8s0.5-0.4,0.9-0.5
			s0.7-0.2,1.1-0.2c0.4,0,0.8,0.1,1.1,0.2s0.6,0.3,0.9,0.5s0.4,0.5,0.6,0.8s0.2,0.7,0.2,1c0,0.4-0.1,0.9-0.2,1.3s-0.4,0.8-0.7,1.2
			s-0.7,0.8-1.2,1.2s-1.1,0.8-1.7,1.2L78.5,125.1L78.5,125.1z"/>
		<path class="st3" d="M87.2,117.5c0.4,0,0.7,0.1,1,0.2s0.5,0.3,0.8,0.5s0.4,0.4,0.6,0.7s0.3,0.6,0.4,0.9s0.2,0.7,0.2,1
			s0.1,0.7,0.1,1.1s0,0.7-0.1,1.1s-0.1,0.7-0.2,1s-0.2,0.6-0.4,0.9s-0.3,0.5-0.6,0.7s-0.5,0.4-0.8,0.5s-0.6,0.2-1,0.2
			s-0.7-0.1-1-0.2s-0.5-0.3-0.8-0.5s-0.4-0.4-0.6-0.7s-0.3-0.6-0.4-0.9s-0.2-0.7-0.2-1s-0.1-0.7-0.1-1.1s0-0.7,0.1-1.1
			s0.1-0.7,0.2-1s0.2-0.6,0.4-0.9s0.3-0.5,0.6-0.7s0.5-0.4,0.8-0.5S86.9,117.5,87.2,117.5z M87.2,125.2c0.3,0,0.5-0.1,0.8-0.2
			s0.4-0.4,0.6-0.6s0.3-0.6,0.4-1s0.1-0.8,0.1-1.4v-0.4c0-0.5,0-1-0.1-1.3s-0.2-0.7-0.4-1s-0.4-0.5-0.6-0.6s-0.5-0.2-0.8-0.2
			c-0.3,0-0.5,0.1-0.8,0.2s-0.4,0.4-0.6,0.6s-0.3,0.6-0.4,1s-0.1,0.8-0.1,1.3v0.4c0,0.5,0,1,0.1,1.4s0.2,0.7,0.4,1s0.4,0.5,0.6,0.6
			S86.9,125.2,87.2,125.2z"/>
		<path class="st3" d="M93.2,125.1h4.2v0.9h-5.6v-1c0.5-0.4,1-0.7,1.4-1s0.8-0.6,1.1-0.9s0.6-0.5,0.8-0.8s0.4-0.5,0.6-0.7
			s0.3-0.5,0.3-0.7s0.1-0.5,0.1-0.8c0-0.2,0-0.5-0.1-0.7s-0.2-0.4-0.3-0.6s-0.3-0.3-0.6-0.4s-0.5-0.1-0.8-0.1c-0.2,0-0.4,0-0.7,0.1
			s-0.4,0.2-0.6,0.3s-0.3,0.3-0.4,0.5s-0.2,0.5-0.2,0.8l-1-0.1c0-0.4,0.1-0.7,0.2-1.1s0.3-0.6,0.6-0.8s0.5-0.4,0.9-0.5
			s0.7-0.2,1.1-0.2c0.4,0,0.8,0.1,1.1,0.2s0.6,0.3,0.9,0.5s0.4,0.5,0.6,0.8s0.2,0.7,0.2,1c0,0.4-0.1,0.9-0.2,1.3s-0.4,0.8-0.7,1.2
			s-0.7,0.8-1.2,1.2s-1.1,0.8-1.7,1.2L93.2,125.1L93.2,125.1z"/>
		<path class="st3" d="M99,119c0.3,0,0.5,0,0.7-0.1s0.3-0.1,0.4-0.2s0.2-0.2,0.2-0.4s0-0.3,0-0.6v-0.1h1v8.4h-1v-6.2h-1.6V119H99z"
			/>
	</g>
</g>
</svg>
