<?xml version="1.0" encoding="utf-8"?>
<!-- Generator: Adobe Illustrator 25.0.1, SVG Export Plug-In . SVG Version: 6.00 Build 0)  -->
<svg version="1.1" id="Layer_1" xmlns="http://www.w3.org/2000/svg" xmlns:xlink="http://www.w3.org/1999/xlink" x="0px" y="0px"
	 viewBox="0 0 137 35" style="enable-background:new 0 0 137 35;" xml:space="preserve">
<style type="text/css">
	.st0{fill-rule:evenodd;clip-rule:evenodd;fill:#FFFFFF;}
	.st1{fill:none;stroke:#1D70B8;stroke-width:3;stroke-linecap:square;}
	.st2{enable-background:new    ;}
	.st3{fill:#505A5F;}
</style>
<g id="Application-submitted-gnc">
	<rect class="st0" width="137" height="35"/>
	<g id="Group" transform="translate(1.000000, 2.000000)">
		<line id="Line-2-Copy-5" class="st1" x1="0.5" y1="0" x2="0.5" y2="16"/>
		<line id="Line-3-Copy-16" class="st1" x1="1" y1="8" x2="11" y2="8"/>
		<g class="st2">
			<path d="M24.5,10.4h-3.1L20.9,12h-1.8l2.7-8.4h2.2l2.8,8.4H25L24.5,10.4z M21.9,8.9h2.2L23,5.4h0L21.9,8.9z"/>
			<path d="M29.4,14h-1.6V5.7h1.6v0.5c0.2-0.2,0.4-0.3,0.7-0.5s0.6-0.2,0.9-0.2c0.4,0,0.8,0.1,1.1,0.2s0.6,0.4,0.9,0.7
				s0.4,0.6,0.6,1s0.2,0.8,0.2,1.3s-0.1,0.9-0.2,1.3s-0.3,0.7-0.6,1s-0.5,0.5-0.9,0.7s-0.7,0.2-1.1,0.2c-0.2,0-0.4,0-0.5,0
				S30.1,12,30,11.9s-0.2-0.1-0.3-0.2s-0.2-0.2-0.3-0.3V14z M29.3,9.4c0,0.2,0,0.3,0.1,0.5s0.1,0.3,0.3,0.4s0.2,0.2,0.4,0.2
				s0.3,0.1,0.5,0.1c0.2,0,0.4,0,0.6-0.1s0.3-0.2,0.4-0.4s0.2-0.3,0.3-0.5S32,9.2,32,8.9V8.8c0-0.2,0-0.5-0.1-0.7s-0.2-0.4-0.3-0.5
				s-0.3-0.3-0.4-0.4s-0.4-0.1-0.6-0.1c-0.2,0-0.4,0-0.5,0.1s-0.3,0.1-0.4,0.2s-0.2,0.2-0.3,0.4s-0.1,0.3-0.1,0.5V9.4z"/>
			<path d="M36.4,14h-1.6V5.7h1.6v0.5c0.2-0.2,0.4-0.3,0.7-0.5s0.6-0.2,0.9-0.2c0.4,0,0.8,0.1,1.1,0.2s0.6,0.4,0.9,0.7
				s0.4,0.6,0.6,1s0.2,0.8,0.2,1.3s-0.1,0.9-0.2,1.3s-0.3,0.7-0.6,1s-0.5,0.5-0.9,0.7s-0.7,0.2-1.1,0.2c-0.2,0-0.4,0-0.5,0
				s-0.3-0.1-0.4-0.1s-0.2-0.1-0.3-0.2s-0.2-0.2-0.3-0.3V14z M36.4,9.4c0,0.2,0,0.3,0.1,0.5s0.1,0.3,0.3,0.4s0.2,0.2,0.4,0.2
				s0.3,0.1,0.5,0.1c0.2,0,0.4,0,0.6-0.1s0.3-0.2,0.4-0.4S39,9.8,39,9.6s0.1-0.4,0.1-0.7V8.8c0-0.2,0-0.5-0.1-0.7s-0.2-0.4-0.3-0.5
				s-0.3-0.3-0.4-0.4s-0.4-0.1-0.6-0.1c-0.2,0-0.4,0-0.5,0.1s-0.3,0.1-0.4,0.2s-0.2,0.2-0.3,0.4s-0.1,0.3-0.1,0.5V9.4z"/>
			<path d="M41.9,3.6h1.6v6.7c0,0.1,0,0.2,0.1,0.3s0.2,0.1,0.4,0.1c0.1,0,0.1,0,0.2,0s0.1,0,0.2,0l0.1,1.4c-0.1,0-0.2,0-0.4,0
				c-0.1,0-0.2,0-0.4,0s-0.3,0-0.4,0c-0.2,0-0.4,0-0.6-0.1s-0.3-0.1-0.5-0.3s-0.2-0.3-0.3-0.4s-0.1-0.4-0.1-0.6V3.6z"/>
			<path d="M45.3,4.1c0-0.1,0-0.3,0.1-0.4s0.1-0.2,0.2-0.3s0.2-0.2,0.3-0.2s0.2-0.1,0.4-0.1c0.1,0,0.3,0,0.4,0.1s0.2,0.1,0.3,0.2
				s0.2,0.2,0.2,0.3s0.1,0.2,0.1,0.4c0,0.1,0,0.3-0.1,0.4S47.1,4.7,47,4.8S46.8,4.9,46.7,5s-0.2,0.1-0.4,0.1c-0.1,0-0.3,0-0.4-0.1
				s-0.2-0.1-0.3-0.2s-0.2-0.2-0.2-0.3S45.3,4.2,45.3,4.1z M47.1,12h-1.6V5.7h1.6V12z"/>
			<path d="M49.9,8.9c0,0.2,0,0.4,0.1,0.6s0.1,0.4,0.3,0.6s0.3,0.3,0.4,0.4s0.4,0.2,0.6,0.2c0.2,0,0.3,0,0.4-0.1s0.2-0.1,0.4-0.2
				s0.2-0.2,0.3-0.3s0.1-0.2,0.2-0.3l1.4,0.7c-0.1,0.2-0.2,0.5-0.4,0.7s-0.4,0.4-0.6,0.5s-0.5,0.2-0.8,0.3s-0.6,0.1-0.9,0.1
				c-0.4,0-0.8-0.1-1.2-0.2s-0.7-0.4-1-0.7s-0.5-0.6-0.6-1s-0.2-0.8-0.2-1.3c0-0.5,0.1-0.9,0.2-1.3s0.4-0.7,0.6-1s0.6-0.5,1-0.7
				s0.8-0.2,1.2-0.2c0.3,0,0.6,0,0.9,0.1s0.5,0.2,0.8,0.3s0.4,0.3,0.6,0.5S53.9,7,54,7.2L52.6,8c-0.1-0.1-0.1-0.2-0.2-0.3
				s-0.2-0.2-0.3-0.3s-0.2-0.1-0.4-0.2s-0.3-0.1-0.4-0.1c-0.2,0-0.5,0.1-0.6,0.2s-0.3,0.2-0.4,0.4S50,8,50,8.2S49.9,8.6,49.9,8.9
				L49.9,8.9z"/>
			<path d="M58.5,11.4c-0.1,0.1-0.1,0.2-0.2,0.2s-0.2,0.2-0.3,0.2S57.6,12,57.5,12s-0.4,0.1-0.6,0.1c-0.3,0-0.6,0-0.9-0.1
				s-0.5-0.2-0.7-0.4s-0.4-0.4-0.5-0.6s-0.2-0.5-0.2-0.8c0-0.5,0.2-0.9,0.5-1.2s0.7-0.5,1.3-0.6l1.8-0.3V7.9c0-0.3-0.1-0.5-0.3-0.7
				S57.5,7,57.2,7c-0.2,0-0.3,0-0.5,0.1s-0.3,0.1-0.5,0.1s-0.3,0.1-0.4,0.2s-0.2,0.1-0.3,0.2l-0.6-1.2c0.4-0.2,0.8-0.4,1.2-0.5
				s0.9-0.2,1.4-0.2c0.3,0,0.6,0,0.9,0.1s0.6,0.2,0.8,0.3s0.4,0.4,0.6,0.7s0.2,0.6,0.2,1.1v2.6c0,0.2,0,0.3,0.1,0.4s0.2,0.2,0.4,0.2
				l-0.7,1.2c-0.3,0-0.5-0.1-0.7-0.2S58.6,11.6,58.5,11.4z M57,9.5c-0.2,0-0.4,0.1-0.5,0.2s-0.2,0.3-0.2,0.4c0,0.2,0.1,0.4,0.2,0.5
				s0.4,0.2,0.7,0.2c0.3,0,0.5-0.1,0.7-0.3s0.3-0.4,0.3-0.7V9.2L57,9.5z"/>
			<path d="M63.3,10.1c0,0.1,0,0.1,0,0.2s0.1,0.1,0.1,0.2s0.1,0.1,0.2,0.1s0.2,0,0.3,0c0.1,0,0.1,0,0.2,0s0.1,0,0.2,0s0.1,0,0.2,0
				s0.1,0,0.2,0L65,12c-0.2,0-0.3,0-0.5,0.1c-0.1,0-0.3,0-0.5,0s-0.3,0-0.5,0c-0.6,0-1-0.1-1.3-0.4s-0.5-0.7-0.5-1.2V7.1h-1.1V5.7
				h1.1V3.9l1.6-0.4v2.2H65v1.4h-1.6V10.1z"/>
			<path d="M65.9,4.1c0-0.1,0-0.3,0.1-0.4s0.1-0.2,0.2-0.3s0.2-0.2,0.3-0.2s0.2-0.1,0.4-0.1c0.1,0,0.3,0,0.4,0.1s0.2,0.1,0.3,0.2
				s0.2,0.2,0.2,0.3s0.1,0.2,0.1,0.4c0,0.1,0,0.3-0.1,0.4s-0.1,0.2-0.2,0.3S67.4,4.9,67.2,5S67,5.1,66.9,5.1c-0.1,0-0.3,0-0.4-0.1
				s-0.2-0.1-0.3-0.2S66,4.6,66,4.5S65.9,4.2,65.9,4.1z M67.7,12h-1.6V5.7h1.6V12z"/>
			<path d="M71.9,5.6c0.5,0,0.9,0.1,1.3,0.2s0.7,0.4,1,0.7s0.5,0.6,0.6,1S75,8.4,75,8.9c0,0.5-0.1,0.9-0.2,1.3s-0.4,0.7-0.6,1
				s-0.6,0.5-1,0.7s-0.8,0.2-1.3,0.2c-0.5,0-0.9-0.1-1.3-0.2s-0.7-0.4-1-0.7s-0.5-0.6-0.6-1s-0.2-0.8-0.2-1.3c0-0.5,0.1-0.9,0.2-1.3
				s0.4-0.7,0.6-1s0.6-0.5,1-0.7S71.4,5.6,71.9,5.6z M71.9,10.6c0.2,0,0.4,0,0.6-0.1s0.3-0.2,0.4-0.4s0.2-0.3,0.3-0.5
				s0.1-0.4,0.1-0.7v0c0-0.3,0-0.5-0.1-0.7s-0.2-0.4-0.3-0.6s-0.3-0.3-0.4-0.4s-0.4-0.1-0.6-0.1s-0.4,0-0.6,0.1s-0.3,0.2-0.4,0.4
				s-0.2,0.3-0.3,0.6s-0.1,0.4-0.1,0.7v0c0,0.3,0,0.5,0.1,0.7s0.2,0.4,0.3,0.5s0.3,0.3,0.4,0.4S71.6,10.6,71.9,10.6z"/>
			<path d="M76.1,5.7h1.6v0.5C77.8,6.2,77.9,6.1,78,6s0.2-0.2,0.4-0.2s0.3-0.1,0.4-0.1s0.3-0.1,0.5-0.1c0.3,0,0.6,0.1,0.9,0.2
				s0.5,0.3,0.7,0.5s0.3,0.4,0.4,0.7s0.1,0.5,0.1,0.8V12h-1.6V8.3c0-0.2,0-0.4-0.1-0.6s-0.1-0.3-0.2-0.4s-0.2-0.2-0.3-0.2
				S79,7.1,78.9,7.1c-0.2,0-0.3,0-0.5,0.1S78.1,7.4,78,7.5s-0.2,0.3-0.2,0.4s-0.1,0.4-0.1,0.6V12h-1.6V5.7z"/>
			<path d="M85.5,10c0.2,0.2,0.5,0.4,0.8,0.5c0.3,0.1,0.6,0.2,1,0.2c0.2,0,0.4,0,0.6-0.1s0.2-0.2,0.2-0.4c0-0.2-0.3-0.4-0.8-0.6
				l-0.5-0.1c-0.2-0.1-0.5-0.1-0.7-0.2S85.7,9.1,85.5,9S85.2,8.6,85,8.4s-0.2-0.5-0.2-0.8c0-0.3,0.1-0.5,0.2-0.7s0.3-0.4,0.5-0.6
				s0.5-0.3,0.8-0.4s0.6-0.2,1-0.2c0.5,0,1,0.1,1.4,0.3s0.8,0.4,1,0.6l-0.8,1.1c-0.2-0.1-0.4-0.3-0.7-0.4S87.7,7,87.4,7
				c-0.3,0-0.5,0-0.6,0.1c-0.1,0.1-0.2,0.2-0.2,0.3c0,0.1,0.1,0.2,0.2,0.3c0.1,0.1,0.3,0.2,0.5,0.2L88,8.2c0.6,0.2,1.1,0.4,1.4,0.7
				s0.4,0.7,0.4,1.2c0,0.3-0.1,0.5-0.2,0.8s-0.3,0.5-0.5,0.6s-0.5,0.3-0.8,0.4s-0.7,0.2-1.1,0.2c-0.3,0-0.6,0-0.9-0.1
				s-0.5-0.1-0.7-0.2s-0.4-0.2-0.6-0.3s-0.3-0.2-0.5-0.4L85.5,10z"/>
			<path d="M96.2,12h-1.6v-0.5c-0.1,0.1-0.2,0.2-0.3,0.2s-0.2,0.2-0.4,0.2s-0.3,0.1-0.4,0.1s-0.3,0.1-0.5,0.1
				c-0.3,0-0.6-0.1-0.9-0.2s-0.5-0.3-0.7-0.5s-0.3-0.4-0.4-0.7s-0.1-0.5-0.1-0.8V5.7h1.6v3.6c0,0.2,0,0.4,0.1,0.6s0.1,0.3,0.2,0.4
				s0.2,0.2,0.3,0.2s0.3,0.1,0.4,0.1c0.2,0,0.3,0,0.5-0.1s0.3-0.1,0.4-0.3s0.2-0.3,0.2-0.4s0.1-0.4,0.1-0.6V5.7h1.6V12z"/>
			<path d="M103.6,8.9c0,0.5-0.1,0.9-0.2,1.3s-0.3,0.7-0.6,1s-0.5,0.5-0.9,0.7s-0.7,0.2-1.1,0.2c-0.2,0-0.4,0-0.5,0
				s-0.3-0.1-0.4-0.1s-0.2-0.1-0.3-0.2s-0.2-0.2-0.3-0.3V12h-1.6V3.6h1.6v2.7c0.2-0.2,0.4-0.3,0.7-0.5s0.6-0.2,0.9-0.2
				c0.4,0,0.8,0.1,1.1,0.2s0.6,0.4,0.9,0.7s0.4,0.6,0.6,1S103.6,8.4,103.6,8.9z M99.2,9.4c0,0.2,0,0.3,0.1,0.5s0.1,0.3,0.3,0.4
				s0.2,0.2,0.4,0.2s0.3,0.1,0.5,0.1c0.2,0,0.4,0,0.6-0.1s0.3-0.2,0.4-0.4s0.2-0.3,0.3-0.5s0.1-0.4,0.1-0.7V8.8c0-0.2,0-0.5-0.1-0.7
				s-0.2-0.4-0.3-0.5s-0.3-0.3-0.4-0.4s-0.4-0.1-0.6-0.1c-0.2,0-0.4,0-0.5,0.1s-0.3,0.1-0.4,0.2s-0.2,0.2-0.3,0.4s-0.1,0.3-0.1,0.5
				V9.4z"/>
			<path d="M110,12h-1.6V8.3c0-0.2,0-0.4-0.1-0.6s-0.1-0.3-0.2-0.4s-0.2-0.2-0.3-0.2s-0.2-0.1-0.4-0.1c-0.2,0-0.3,0-0.4,0.1
				s-0.3,0.1-0.4,0.3s-0.2,0.3-0.2,0.4s-0.1,0.4-0.1,0.6V12h-1.6V5.7h1.6v0.6c0.2-0.2,0.4-0.4,0.7-0.5c0.3-0.1,0.6-0.2,0.9-0.2
				c0.3,0,0.6,0.1,0.9,0.2s0.5,0.4,0.7,0.7c0.1-0.2,0.2-0.3,0.4-0.4s0.3-0.2,0.5-0.3s0.3-0.1,0.5-0.1s0.4,0,0.5,0
				c0.4,0,0.7,0.1,0.9,0.2c0.3,0.1,0.5,0.3,0.7,0.5c0.2,0.2,0.3,0.4,0.4,0.7s0.2,0.5,0.2,0.8V12h-1.6V8.3c0-0.2,0-0.4-0.1-0.6
				s-0.1-0.3-0.2-0.4c-0.1-0.1-0.2-0.2-0.3-0.2c-0.1,0-0.2-0.1-0.4-0.1c-0.2,0-0.3,0-0.4,0.1c-0.1,0.1-0.2,0.1-0.3,0.3
				c-0.1,0.1-0.2,0.3-0.2,0.4c-0.1,0.2-0.1,0.4-0.1,0.6V12z"/>
			<path d="M115,4.1c0-0.1,0-0.3,0.1-0.4s0.1-0.2,0.2-0.3s0.2-0.2,0.3-0.2s0.2-0.1,0.4-0.1c0.1,0,0.3,0,0.4,0.1s0.2,0.1,0.3,0.2
				s0.2,0.2,0.2,0.3s0.1,0.2,0.1,0.4c0,0.1,0,0.3-0.1,0.4s-0.1,0.2-0.2,0.3s-0.2,0.2-0.3,0.2s-0.2,0.1-0.4,0.1c-0.1,0-0.3,0-0.4-0.1
				s-0.2-0.1-0.3-0.2s-0.2-0.2-0.2-0.3S115,4.2,115,4.1z M116.7,12h-1.6V5.7h1.6V12z"/>
			<path d="M120.5,10.1c0,0.1,0,0.1,0,0.2s0.1,0.1,0.1,0.2s0.1,0.1,0.2,0.1s0.2,0,0.3,0c0.1,0,0.1,0,0.2,0s0.1,0,0.2,0s0.1,0,0.2,0
				s0.1,0,0.2,0l0.1,1.4c-0.2,0-0.3,0-0.5,0.1c-0.1,0-0.3,0-0.5,0s-0.3,0-0.5,0c-0.6,0-1-0.1-1.3-0.4s-0.5-0.7-0.5-1.2V7.1h-1.1V5.7
				h1.1V3.9l1.6-0.4v2.2h1.6v1.4h-1.6V10.1z"/>
			<path d="M124.6,9.4c0,0.2,0.1,0.4,0.2,0.5c0.1,0.2,0.2,0.3,0.3,0.4c0.1,0.1,0.3,0.2,0.5,0.3c0.2,0.1,0.4,0.1,0.6,0.1
				c0.2,0,0.5,0,0.8-0.1s0.5-0.2,0.8-0.4l0.8,1.1c-0.3,0.2-0.7,0.4-1.1,0.6c-0.4,0.2-0.9,0.2-1.4,0.2c-0.4,0-0.8-0.1-1.2-0.2
				c-0.4-0.1-0.7-0.4-1-0.6c-0.3-0.3-0.5-0.6-0.7-1s-0.2-0.9-0.2-1.4c0-0.5,0.1-0.9,0.2-1.3s0.4-0.7,0.6-1s0.6-0.5,0.9-0.7
				s0.8-0.2,1.2-0.2c0.4,0,0.8,0.1,1.2,0.2c0.4,0.2,0.7,0.4,0.9,0.6s0.5,0.6,0.6,1s0.2,0.8,0.2,1.3v0.7H124.6z M125.9,7
				c-0.3,0-0.6,0.1-0.9,0.3s-0.4,0.5-0.4,0.8h2.5c0-0.3-0.1-0.6-0.4-0.8S126.2,7,125.9,7z"/>
			<path d="M133.9,12v-0.5c-0.1,0.1-0.2,0.2-0.3,0.3s-0.2,0.1-0.3,0.2s-0.3,0.1-0.4,0.1s-0.3,0-0.5,0c-0.4,0-0.8-0.1-1.1-0.2
				s-0.6-0.4-0.9-0.7s-0.4-0.6-0.6-1s-0.2-0.8-0.2-1.3s0.1-0.9,0.2-1.3s0.3-0.7,0.6-1s0.5-0.5,0.9-0.7s0.7-0.2,1.1-0.2
				c0.4,0,0.7,0.1,0.9,0.2s0.5,0.3,0.6,0.5V3.6h1.6V12H133.9z M134,8.3c0-0.2,0-0.3-0.1-0.5c-0.1-0.1-0.1-0.3-0.3-0.4
				c-0.1-0.1-0.2-0.2-0.4-0.2c-0.2-0.1-0.3-0.1-0.5-0.1c-0.2,0-0.4,0-0.6,0.1c-0.2,0.1-0.3,0.2-0.4,0.4c-0.1,0.2-0.2,0.3-0.3,0.5
				s-0.1,0.4-0.1,0.7v0.1c0,0.2,0,0.5,0.1,0.7s0.2,0.4,0.3,0.5c0.1,0.2,0.3,0.3,0.4,0.4c0.2,0.1,0.4,0.1,0.6,0.1
				c0.2,0,0.4,0,0.5-0.1c0.2-0.1,0.3-0.1,0.4-0.2c0.1-0.1,0.2-0.2,0.3-0.4c0.1-0.1,0.1-0.3,0.1-0.5V8.3z"/>
		</g>
		<g class="st2">
			<path class="st3" d="M19.7,22c0.3,0,0.5,0,0.7-0.1s0.3-0.1,0.4-0.2s0.2-0.2,0.2-0.4s0-0.3,0-0.6v-0.1h1V29h-1v-6.2h-1.6V22H19.7z
				"/>
			<path class="st3" d="M27.1,20.5c0.4,0,0.7,0,1,0.1s0.6,0.2,0.9,0.4s0.5,0.4,0.6,0.7s0.2,0.6,0.2,1c0,0.2,0,0.4-0.1,0.6
				s-0.1,0.4-0.2,0.5s-0.3,0.3-0.4,0.5s-0.4,0.2-0.7,0.3c0.3,0.1,0.6,0.2,0.8,0.3s0.4,0.3,0.5,0.5s0.2,0.4,0.3,0.6s0.1,0.4,0.1,0.7
				c0,0.4-0.1,0.7-0.3,1s-0.4,0.5-0.7,0.7s-0.6,0.3-1,0.4s-0.7,0.1-1.1,0.1s-0.8,0-1.1-0.1s-0.7-0.2-1-0.4s-0.5-0.4-0.7-0.7
				s-0.3-0.6-0.3-1c0-0.2,0-0.4,0.1-0.7s0.2-0.4,0.3-0.6s0.3-0.4,0.5-0.5s0.5-0.3,0.8-0.3c-0.3-0.1-0.5-0.2-0.7-0.3
				s-0.3-0.3-0.4-0.5s-0.2-0.3-0.2-0.5s-0.1-0.4-0.1-0.6c0-0.4,0.1-0.7,0.2-1s0.4-0.5,0.6-0.7s0.6-0.3,0.9-0.4S26.8,20.5,27.1,20.5z
				 M25.1,26.7c0,0.3,0.1,0.5,0.2,0.7s0.3,0.4,0.4,0.5s0.4,0.2,0.6,0.3s0.5,0.1,0.8,0.1c0.3,0,0.5,0,0.8-0.1s0.5-0.2,0.6-0.3
				s0.3-0.3,0.4-0.5s0.2-0.4,0.2-0.7S29.1,26.2,29,26s-0.3-0.4-0.4-0.5s-0.4-0.2-0.6-0.3s-0.5-0.1-0.8-0.1c-0.3,0-0.5,0-0.8,0.1
				s-0.5,0.2-0.6,0.3s-0.3,0.3-0.4,0.5S25.1,26.4,25.1,26.7z M25.4,22.8c0,0.2,0,0.4,0.1,0.6s0.2,0.3,0.4,0.5s0.3,0.2,0.6,0.3
				s0.4,0.1,0.7,0.1c0.2,0,0.4,0,0.7-0.1s0.4-0.2,0.6-0.3s0.3-0.3,0.4-0.5s0.1-0.4,0.1-0.6s0-0.4-0.1-0.6s-0.2-0.3-0.4-0.5
				s-0.3-0.2-0.6-0.3s-0.4-0.1-0.7-0.1c-0.2,0-0.5,0-0.7,0.1s-0.4,0.2-0.6,0.3s-0.3,0.3-0.4,0.5S25.4,22.6,25.4,22.8z"/>
			<path class="st3" d="M33.3,28c0.1,0,0.3,0.1,0.4,0.1c0.1,0,0.2,0.1,0.4,0.1s0.2,0,0.3,0c0.3,0,0.5,0,0.7-0.1s0.3-0.2,0.4-0.3
				s0.1-0.3,0.2-0.5s0-0.4,0-0.7v-6h1v6.7c0,0.3-0.1,0.6-0.2,0.9s-0.3,0.4-0.5,0.6S35.7,29,35.4,29s-0.5,0.1-0.8,0.1
				c-0.3,0-0.5,0-0.8-0.1s-0.5-0.1-0.7-0.2L33.3,28z"/>
			<path class="st3" d="M42.2,28.4c-0.2,0.2-0.4,0.4-0.7,0.5s-0.6,0.2-1.1,0.2c-0.3,0-0.6,0-0.8-0.1s-0.5-0.2-0.7-0.4
				s-0.3-0.3-0.4-0.6s-0.2-0.5-0.2-0.8c0-0.2,0-0.4,0.1-0.6s0.2-0.4,0.3-0.5s0.3-0.3,0.5-0.4s0.4-0.2,0.7-0.2l2.1-0.3v-0.4
				c0-0.2,0-0.4-0.1-0.6s-0.2-0.3-0.3-0.4s-0.3-0.2-0.4-0.2s-0.3-0.1-0.5-0.1c-0.3,0-0.6,0-0.9,0.1s-0.6,0.2-0.8,0.3l-0.4-0.8
				c0.3-0.2,0.7-0.3,1.1-0.4s0.7-0.1,1.1-0.1c0.7,0,1.3,0.2,1.7,0.5s0.6,0.8,0.6,1.4v2.8c0,0.2,0,0.4,0.1,0.5s0.2,0.2,0.4,0.3
				l-0.6,0.7c-0.2,0-0.3-0.1-0.5-0.2S42.2,28.6,42.2,28.4L42.2,28.4z M40.4,26.3c-0.2,0-0.3,0.1-0.4,0.1s-0.2,0.1-0.3,0.2
				s-0.2,0.2-0.2,0.3s-0.1,0.2-0.1,0.4c0,0.2,0,0.3,0.1,0.5s0.2,0.3,0.3,0.3s0.2,0.2,0.4,0.2s0.3,0.1,0.5,0.1c0.2,0,0.4,0,0.5-0.1
				s0.3-0.1,0.5-0.2s0.2-0.2,0.3-0.3s0.1-0.3,0.1-0.5v-1.2L40.4,26.3z"/>
			<path class="st3" d="M44.8,23h1v0.7c0.2-0.3,0.5-0.5,0.8-0.6s0.6-0.2,1-0.2c0.3,0,0.6,0.1,0.9,0.2s0.5,0.3,0.6,0.4
				s0.3,0.4,0.4,0.7s0.1,0.5,0.1,0.8V29h-1v-3.8c0-0.3,0-0.5-0.1-0.7s-0.2-0.3-0.3-0.5s-0.2-0.2-0.4-0.3s-0.3-0.1-0.5-0.1
				c-0.2,0-0.4,0-0.6,0.1s-0.3,0.2-0.5,0.3S46,24.5,46,24.7s-0.1,0.5-0.1,0.7V29h-1V23z"/>
			<path class="st3" d="M56.1,29h-1v-0.7c-0.2,0.3-0.5,0.5-0.8,0.6s-0.6,0.2-1,0.2c-0.3,0-0.6-0.1-0.9-0.2s-0.5-0.3-0.6-0.4
				s-0.3-0.4-0.4-0.7s-0.1-0.5-0.1-0.8V23h1v3.8c0,0.3,0,0.5,0.1,0.7s0.2,0.3,0.3,0.4s0.2,0.2,0.4,0.3s0.3,0.1,0.5,0.1
				c0.2,0,0.4,0,0.6-0.1s0.3-0.2,0.5-0.3s0.3-0.3,0.3-0.5s0.1-0.5,0.1-0.7V23h1V29z"/>
			<path class="st3" d="M61.3,28.4c-0.2,0.2-0.4,0.4-0.7,0.5s-0.6,0.2-1.1,0.2c-0.3,0-0.6,0-0.8-0.1s-0.5-0.2-0.7-0.4
				s-0.3-0.3-0.4-0.6s-0.2-0.5-0.2-0.8c0-0.2,0-0.4,0.1-0.6s0.2-0.4,0.3-0.5s0.3-0.3,0.5-0.4s0.4-0.2,0.7-0.2l2.1-0.3v-0.4
				c0-0.2,0-0.4-0.1-0.6s-0.2-0.3-0.3-0.4s-0.3-0.2-0.4-0.2s-0.3-0.1-0.5-0.1c-0.3,0-0.6,0-0.9,0.1s-0.6,0.2-0.8,0.3l-0.4-0.8
				c0.3-0.2,0.7-0.3,1.1-0.4s0.7-0.1,1.1-0.1c0.7,0,1.3,0.2,1.7,0.5s0.6,0.8,0.6,1.4v2.8c0,0.2,0,0.4,0.1,0.5s0.2,0.2,0.4,0.3
				l-0.6,0.7c-0.2,0-0.3-0.1-0.5-0.2S61.4,28.6,61.3,28.4L61.3,28.4z M59.6,26.3c-0.2,0-0.3,0.1-0.4,0.1s-0.2,0.1-0.3,0.2
				s-0.2,0.2-0.2,0.3s-0.1,0.2-0.1,0.4c0,0.2,0,0.3,0.1,0.5s0.2,0.3,0.3,0.3s0.2,0.2,0.4,0.2s0.3,0.1,0.5,0.1c0.2,0,0.4,0,0.5-0.1
				s0.3-0.1,0.5-0.2s0.2-0.2,0.3-0.3s0.1-0.3,0.1-0.5v-1.2L59.6,26.3z"/>
			<path class="st3" d="M67.1,23.9h-0.2c-0.3,0-0.5,0-0.7,0.1s-0.4,0.2-0.6,0.3s-0.3,0.4-0.4,0.6s-0.2,0.6-0.2,1V29h-1v-6h1V24
				c0.1-0.2,0.2-0.3,0.3-0.5s0.3-0.2,0.4-0.3S66,23,66.2,23s0.4-0.1,0.6-0.1h0.3V23.9z"/>
			<path class="st3" d="M67.6,23h1.1l1.5,4.9l1.4-4.9h1.1l-2.2,6.9c-0.1,0.2-0.2,0.4-0.3,0.5s-0.2,0.2-0.4,0.3s-0.3,0.1-0.4,0.2
				s-0.3,0-0.5,0c-0.2,0-0.3,0-0.5,0s-0.4,0-0.6-0.1L68,30c0.1,0,0.2,0,0.3,0c0.1,0,0.2,0,0.3,0s0.2,0,0.3,0c0.2,0,0.4,0,0.5-0.1
				s0.2-0.2,0.3-0.5l0.1-0.3L67.6,23z"/>
			<path class="st3" d="M77.4,28.1h4.2V29H76v-1c0.5-0.4,1-0.7,1.4-1s0.8-0.6,1.1-0.9s0.6-0.5,0.8-0.8s0.4-0.5,0.6-0.7
				s0.3-0.5,0.3-0.7s0.1-0.5,0.1-0.8c0-0.2,0-0.5-0.1-0.7s-0.2-0.4-0.3-0.6s-0.3-0.3-0.6-0.4s-0.5-0.1-0.8-0.1c-0.2,0-0.4,0-0.7,0.1
				s-0.4,0.2-0.6,0.3s-0.3,0.3-0.4,0.5s-0.2,0.5-0.2,0.8l-1-0.1c0-0.4,0.1-0.7,0.2-1.1s0.3-0.6,0.6-0.8s0.5-0.4,0.9-0.5
				s0.7-0.2,1.1-0.2c0.4,0,0.8,0.1,1.1,0.2s0.6,0.3,0.9,0.5s0.4,0.5,0.6,0.8s0.2,0.7,0.2,1c0,0.4-0.1,0.9-0.2,1.3s-0.4,0.8-0.7,1.2
				s-0.7,0.8-1.2,1.2s-1.1,0.8-1.7,1.2L77.4,28.1L77.4,28.1z"/>
			<path class="st3" d="M86.2,20.5c0.4,0,0.7,0.1,1,0.2s0.5,0.3,0.8,0.5s0.4,0.4,0.6,0.7s0.3,0.6,0.4,0.9s0.2,0.7,0.2,1
				s0.1,0.7,0.1,1.1s0,0.7-0.1,1.1s-0.1,0.7-0.2,1s-0.2,0.6-0.4,0.9s-0.3,0.5-0.6,0.7s-0.5,0.4-0.8,0.5s-0.6,0.2-1,0.2
				s-0.7-0.1-1-0.2s-0.5-0.3-0.8-0.5S84,28,83.8,27.8s-0.3-0.6-0.4-0.9s-0.2-0.7-0.2-1s-0.1-0.7-0.1-1.1s0-0.7,0.1-1.1
				s0.1-0.7,0.2-1s0.2-0.6,0.4-0.9s0.3-0.5,0.6-0.7s0.5-0.4,0.8-0.5S85.8,20.5,86.2,20.5z M86.2,28.2c0.3,0,0.5-0.1,0.8-0.2
				s0.4-0.4,0.6-0.6s0.3-0.6,0.4-1s0.1-0.8,0.1-1.4v-0.4c0-0.5,0-1-0.1-1.3s-0.2-0.7-0.4-1s-0.4-0.5-0.6-0.6s-0.5-0.2-0.8-0.2
				c-0.3,0-0.5,0.1-0.8,0.2s-0.4,0.4-0.6,0.6s-0.3,0.6-0.4,1s-0.1,0.8-0.1,1.3V25c0,0.5,0,1,0.1,1.4s0.2,0.7,0.4,1s0.4,0.5,0.6,0.6
				S85.9,28.2,86.2,28.2z"/>
			<path class="st3" d="M92.2,28.1h4.2V29h-5.6v-1c0.5-0.4,1-0.7,1.4-1s0.8-0.6,1.1-0.9s0.6-0.5,0.8-0.8s0.4-0.5,0.6-0.7
				s0.3-0.5,0.3-0.7s0.1-0.5,0.1-0.8c0-0.2,0-0.5-0.1-0.7s-0.2-0.4-0.3-0.6s-0.3-0.3-0.6-0.4s-0.5-0.1-0.8-0.1c-0.2,0-0.4,0-0.7,0.1
				s-0.4,0.2-0.6,0.3s-0.3,0.3-0.4,0.5s-0.2,0.5-0.2,0.8l-1-0.1c0-0.4,0.1-0.7,0.2-1.1s0.3-0.6,0.6-0.8s0.5-0.4,0.9-0.5
				s0.7-0.2,1.1-0.2c0.4,0,0.8,0.1,1.1,0.2s0.6,0.3,0.9,0.5s0.4,0.5,0.6,0.8s0.2,0.7,0.2,1c0,0.4-0.1,0.9-0.2,1.3s-0.4,0.8-0.7,1.2
				s-0.7,0.8-1.2,1.2s-1.1,0.8-1.7,1.2L92.2,28.1L92.2,28.1z"/>
			<path class="st3" d="M97.9,22c0.3,0,0.5,0,0.7-0.1s0.3-0.1,0.4-0.2s0.2-0.2,0.2-0.4s0-0.3,0-0.6v-0.1h1V29h-1v-6.2h-1.6V22H97.9z
				"/>
		</g>
	</g>
</g>
</svg>
